<svg width="798" height="484" viewBox="0 0 798 484" fill="none" xmlns="http://www.w3.org/2000/svg">
<path d="M28.9638 20.5964L7.21935 22.1952C5.24412 22.3405 3.4629 23.4372 2.44392 25.1355C1.40738 26.863 1.29232 28.9914 2.13658 30.8207L3.13991 32.9946C3.75275 34.3224 4.63329 35.5093 5.72632 36.4809L8.1408 38.6271C8.70751 39.1308 9.23578 39.6762 9.72119 40.2587L11.332 42.1917C13.3079 44.5628 14.0843 47.7104 13.4376 50.7283L13.112 52.248C12.922 53.1345 12.9902 54.0568 13.3086 54.9057C14.0024 56.7559 15.7711 57.9816 17.7471 57.9816H20.0755C21.3747 57.9816 22.6107 58.5425 23.4662 59.5202L24.0201 60.1532C25.1364 61.4289 25.1781 63.3212 24.1191 64.6449C23.8819 64.9414 23.5981 65.1973 23.2787 65.4026L16.103 70.0155L18.5539 78.0683C19.4215 80.9191 21.5797 83.1956 24.3802 84.214C25.418 84.5914 26.5139 84.7844 27.6182 84.7844H33.7958C35.1235 84.7844 36.4462 84.6216 37.7342 84.2996L39.9833 83.7373C42.8953 83.0093 45.9788 83.517 48.5037 85.1402L49.4021 85.7177C51.1998 86.8734 53.3763 87.2851 55.4719 86.866C56.9141 86.5776 58.2528 85.9082 59.3489 84.9275L61.9113 82.6348C65.5177 79.4081 70.8708 79.0887 74.8352 81.8638C77.468 83.7067 80.8038 84.2318 83.8754 83.2867L84.1417 83.2047C85.4481 82.8027 86.6681 82.1606 87.739 81.3112L96.0636 74.709C99.8315 71.7207 104.688 70.4667 109.432 71.2573C113.114 71.871 116.493 73.6791 119.046 76.4027L120.379 77.824C122.319 79.8934 123.855 82.3071 124.908 84.9409L126.262 88.3248C127.887 92.3867 130.946 95.7111 134.859 97.6675C137.339 98.9077 140.074 99.5533 142.847 99.5533H148.476L159.416 100.647C161.018 100.647 162.139 99.0632 161.606 97.5525L160.387 94.1003C159.789 92.4041 160.165 90.5163 161.368 89.1793L162.428 88.0017C163.66 86.6332 165.347 85.7598 167.176 85.5447L169.073 85.3215C172.022 84.9745 174.999 85.6761 177.482 87.3032L189.501 95.1774L194.873 98.1619C197.822 99.8004 200.393 102.042 202.418 104.742L205.911 109.399L211.48 117.538C212.489 119.013 213.879 120.188 215.501 120.937L216.129 121.226C218.641 122.386 221.559 122.259 223.962 120.886L230.65 118.132C232.344 117.435 234.219 117.313 235.988 117.785C239.295 118.667 241.731 121.475 242.136 124.874L245.175 150.404C246.238 159.331 252.643 166.704 261.333 169.004L262.92 169.424C264.646 169.881 266.444 169.995 268.213 169.759C271.754 169.286 275.34 170.223 278.198 172.367L281.06 174.513C282.009 175.225 282.859 176.06 283.588 176.997L284.784 178.535C285.78 179.816 287.166 180.74 288.732 181.167C291.002 181.786 292.85 183.434 293.724 185.619L294.158 186.704C294.401 187.313 294.583 187.945 294.701 188.59L294.782 189.038C295.306 191.918 297.208 194.359 299.874 195.571C301.035 196.099 302.295 196.372 303.57 196.372H310.387H311.481L312.178 191.027C312.746 186.676 315.958 183.136 320.233 182.15L320.302 182.142C323.371 181.801 326.12 180.088 327.778 177.483C328.573 176.233 329.086 174.825 329.282 173.357L331.033 160.229C331.126 159.531 331.119 158.822 331.011 158.126C330.471 154.611 332.508 151.208 335.862 150.024L337.926 149.295C338.888 148.956 339.793 148.472 340.609 147.86L342.378 146.533C345.937 143.864 350.65 143.299 354.738 145.051C355.436 145.35 356.106 145.713 356.738 146.134L361.326 149.193C363.065 150.352 365.108 150.971 367.198 150.971C369.041 150.971 370.851 150.49 372.451 149.576L372.549 149.52C375.747 147.693 379.646 147.584 382.94 149.231L383.646 149.584C384.759 150.141 385.95 150.528 387.178 150.733L395.171 152.065L402.259 153.557C404.437 154.016 406.689 154.003 408.862 153.52L412.409 152.732C414.325 152.306 415.982 151.112 416.992 149.428L417.073 149.294C418.1 147.581 419.827 146.406 421.797 146.078L422.923 145.89C424.387 145.646 425.879 146.124 426.929 147.174L427.718 147.963C429.077 149.322 431.281 149.322 432.641 147.963C433.173 147.43 433.519 146.739 433.625 145.993L434.142 142.373C434.415 140.466 435.066 138.633 436.057 136.982L441.37 128.126C443.337 124.849 446.322 122.306 449.871 120.886L454.688 118.822C456.574 118.013 458.349 116.967 459.969 115.707L461.608 114.432C462.169 113.995 462.772 113.615 463.409 113.297L465.488 112.257C467.67 111.166 470.268 111.328 472.298 112.681H475.235C476.557 112.681 477.876 112.79 479.18 113.008L480.689 113.259C482.744 113.602 484.835 113.675 486.91 113.478L495.272 112.681L496.391 111.562C499.591 108.362 501.821 104.323 502.824 99.9103L503.427 97.2564C503.824 95.5112 504.024 93.7271 504.024 91.9374V84.7844L504.52 75.365C504.554 74.7186 504.668 74.0789 504.862 73.461L506.094 69.5163C506.752 67.4112 509.044 66.2913 511.109 67.0657L511.186 67.0947C511.514 67.2178 511.821 67.3921 512.095 67.6112C513.417 68.6686 515.322 68.563 516.519 67.3661L522.336 61.5489C523.885 59.9999 526.096 59.3094 528.251 59.7013C529.907 60.0023 531.388 60.9176 532.397 62.2639L532.593 62.5251C533.576 63.836 534.961 64.7893 536.537 65.2394L540.266 66.3048C541.251 66.5862 542.29 66.6172 543.29 66.395C545.399 65.9263 547.107 64.3855 547.791 62.3358L548.459 60.3312C548.737 59.4979 549.124 58.7053 549.612 57.9744L552.728 53.2992C553.677 51.8769 555.48 51.2953 557.08 51.8955L558.028 52.2509C558.468 52.4158 558.81 52.7705 558.958 53.2162C559.339 54.3573 560.814 54.6542 561.606 53.749L563.646 51.4177C564.923 49.8224 567.14 49.3354 568.967 50.249L574.265 52.8978C574.478 53.0047 574.679 53.1359 574.863 53.2889L576.414 54.5815C577.157 55.2006 578.283 54.9651 578.715 54.1002C579.268 52.9949 580.845 52.9949 581.398 54.1002L582.13 55.566C582.206 55.7173 582.265 55.8764 582.306 56.0406L582.555 57.0357C583.067 59.0864 584.128 60.9592 585.622 62.4538L585.701 62.5321C587.025 63.8562 588.639 64.8539 590.416 65.446L591.238 65.7201C594.286 66.736 597.571 66.7947 600.653 65.8882L604.324 64.8084C604.919 64.6336 605.529 64.5173 606.146 64.4613L609.124 64.1905C610.442 64.0707 611.732 64.6203 612.559 65.6538C613.118 66.3528 613.423 67.2212 613.423 68.1164V73.0744C613.423 73.9177 613.758 74.7265 614.354 75.3229C615.408 76.3767 617.053 76.5572 618.31 75.7571L620.572 74.3173C621.619 73.6513 622.834 73.2975 624.074 73.2975H624.363L624.839 71.8693C625.602 69.5809 626.961 67.5372 628.776 65.9488C629.839 65.019 630.75 63.9291 631.476 62.7184L633.662 59.0756L622.175 56.8876L616.118 55.6761C612.923 55.0372 609.962 53.5419 607.551 51.3503C606.007 49.9473 604.232 48.8235 602.303 48.0294L598.947 46.6474C596.938 45.8201 594.826 45.2695 592.668 45.0106L587.722 44.4171C584.117 43.9845 580.657 42.7396 577.603 40.7763L574.586 38.8367L568.727 34.149C565.4 31.4876 561.424 29.7597 557.209 29.1428L544.368 27.2635C542.278 26.9577 540.238 26.3775 538.3 25.5378L527.204 20.7293C525.612 20.0397 524.1 19.1797 522.694 18.1642L521.255 17.1246C517.165 14.1708 512.248 12.5809 507.203 12.5809H500.195H494.509C490.094 12.5809 485.86 10.827 482.738 7.70501C481.261 6.22817 479.52 5.04242 477.604 4.20966L474.045 2.66222C470.039 0.92048 465.634 0.305107 461.304 0.882433L454.214 1.82767C452.419 2.06711 450.656 2.50912 448.959 3.14524L429.632 10.3929L412.572 19.1535C410.465 20.2358 408.529 21.6242 406.828 23.2735L375.063 54.0762C373.885 55.2182 372.594 56.2363 371.208 57.1148L355.135 67.3073C352.319 69.0932 349.162 70.2726 345.864 70.7703L323.655 74.1227C322.469 74.3017 321.272 74.3915 320.073 74.3915H304.685C301.234 74.3915 297.823 75.1359 294.685 76.574L291.081 78.226C287.943 79.6641 284.533 80.4085 281.081 80.4085H262.35C260.829 80.4085 259.311 80.2639 257.818 79.9766L247.573 78.0065C246.42 77.7848 245.285 77.4788 244.177 77.091L223.962 70.0155L203.723 65.0926L191.288 62.761C187.947 62.1346 184.777 60.8054 181.988 58.8617L176.324 54.9139C171.102 51.2744 164.648 49.8583 158.382 50.9772L154.178 51.7279C153.296 51.8854 152.401 51.9647 151.505 51.9647C148.124 51.9647 144.839 50.8376 142.17 48.7617L140.704 47.6212C137.91 45.4482 134.604 44.0309 131.103 43.5059L126.658 42.839C125.889 42.7238 125.133 42.5355 124.4 42.2768L122.113 41.4696C118.574 40.2206 114.633 41.3472 112.288 44.2777L110.749 46.2022C110.048 47.0785 108.986 47.5887 107.864 47.5887C105.823 47.5887 104.169 45.9347 104.169 43.8943V41.2982C104.169 37.8241 101.353 35.0078 97.879 35.0078H96.9219C95.5806 35.0078 94.2657 35.38 93.1234 36.0829L90.2645 37.8422C88.7078 38.8002 87.7595 40.4972 87.7595 42.325V44.0256C87.7595 45.9934 86.1643 47.5887 84.1965 47.5887C83.0051 47.5887 81.8887 46.9874 81.2279 45.9961C80.044 44.2204 77.5768 43.844 75.9294 45.2007L61.8615 56.786C60.9787 57.5131 59.7505 57.652 58.7275 57.1405C57.7471 56.6503 57.1277 55.6482 57.1277 54.552V52.1702C57.1277 51.3117 57.2915 50.4612 57.6104 49.6641L57.929 48.8674C59.4573 45.0467 58.768 40.6957 56.1336 37.5344L49.161 29.1673C44.205 23.2201 36.6845 20.0287 28.9638 20.5964Z" fill="#DDDDDD"/>
<path d="M633.662 59.0756L622.175 56.8876L616.118 55.6761C612.923 55.0372 609.962 53.5419 607.551 51.3503V51.3503C606.007 49.9473 604.232 48.8235 602.303 48.0294L598.947 46.6474C596.938 45.8201 594.826 45.2695 592.668 45.0106L587.722 44.4171C584.117 43.9845 580.657 42.7396 577.603 40.7763L574.586 38.8367L568.727 34.149C565.4 31.4876 561.425 29.7597 557.209 29.1428L544.368 27.2635C542.278 26.9577 540.238 26.3775 538.3 25.5378L527.204 20.7293C525.612 20.0397 524.1 19.1797 522.694 18.1642L521.255 17.1246C517.165 14.1708 512.248 12.5809 507.203 12.5809H500.195H494.509C490.094 12.5809 485.86 10.827 482.738 7.70501V7.70501C481.261 6.22817 479.52 5.04242 477.604 4.20966L474.045 2.66222C470.039 0.92048 465.634 0.305107 461.304 0.882433L454.214 1.82767C452.419 2.06711 450.656 2.50912 448.959 3.14524L429.632 10.3929L412.572 19.1535C410.465 20.2358 408.529 21.6242 406.828 23.2735L375.063 54.0762C373.885 55.2182 372.594 56.2363 371.208 57.1148L355.135 67.3073C352.319 69.0932 349.162 70.2726 345.864 70.7703L323.655 74.1227C322.469 74.3017 321.272 74.3915 320.073 74.3915H304.685C301.234 74.3915 297.823 75.1359 294.685 76.574L291.081 78.226C287.943 79.6641 284.533 80.4085 281.081 80.4085H262.35C260.829 80.4085 259.311 80.2639 257.818 79.9766L247.573 78.0065C246.42 77.7848 245.285 77.4788 244.177 77.091L223.962 70.0155L203.723 65.0926L191.288 62.761C187.947 62.1346 184.777 60.8054 181.988 58.8617L176.324 54.9139C171.102 51.2744 164.648 49.8583 158.382 50.9772L154.178 51.7279C153.296 51.8854 152.401 51.9647 151.505 51.9647V51.9647C148.124 51.9647 144.839 50.8376 142.17 48.7617L140.704 47.6212C137.91 45.4482 134.604 44.0309 131.103 43.5059L126.658 42.839C125.889 42.7238 125.133 42.5355 124.4 42.2768L122.113 41.4696C118.574 40.2206 114.633 41.3472 112.288 44.2777L110.749 46.2022C110.048 47.0785 108.986 47.5887 107.864 47.5887V47.5887C105.823 47.5887 104.169 45.9347 104.169 43.8943V41.2982C104.169 37.8241 101.353 35.0078 97.879 35.0078H96.9219C95.5806 35.0078 94.2657 35.38 93.1234 36.0829L90.2645 37.8422C88.7078 38.8002 87.7595 40.4972 87.7595 42.325V44.0256C87.7595 45.9934 86.1643 47.5887 84.1965 47.5887V47.5887C83.0051 47.5887 81.8887 46.9874 81.2279 45.9961V45.9961C80.044 44.2204 77.5768 43.844 75.9294 45.2007L61.8615 56.786C60.9787 57.5131 59.7505 57.652 58.7275 57.1405V57.1405C57.7471 56.6503 57.1277 55.6482 57.1277 54.552V52.1702C57.1277 51.3117 57.2915 50.4612 57.6104 49.6641L57.929 48.8674C59.4573 45.0467 58.768 40.6957 56.1336 37.5344L49.161 29.1673C44.205 23.2201 36.6845 20.0287 28.9638 20.5964L7.21935 22.1952C5.24412 22.3405 3.4629 23.4372 2.44392 25.1355V25.1355C1.40738 26.863 1.29232 28.9914 2.13658 30.8207L3.13991 32.9946C3.75275 34.3224 4.63329 35.5093 5.72632 36.4809L8.1408 38.6271C8.70751 39.1308 9.23578 39.6762 9.72119 40.2587L11.332 42.1917C13.3079 44.5628 14.0843 47.7104 13.4376 50.7283L13.112 52.248C12.922 53.1345 12.9902 54.0568 13.3086 54.9057V54.9057C14.0024 56.7559 15.7711 57.9816 17.7471 57.9816H20.0755C21.3747 57.9816 22.6107 58.5425 23.4662 59.5202L24.0201 60.1532C25.1364 61.4289 25.1781 63.3212 24.1191 64.6449V64.6449C23.8819 64.9414 23.5981 65.1973 23.2787 65.4026L16.103 70.0155M633.662 59.0756V59.6226M633.662 59.0756L631.476 62.7184C630.75 63.9291 629.839 65.019 628.776 65.9488V65.9488C626.961 67.5372 625.602 69.5809 624.839 71.8693L624.363 73.2975M15.556 70.0155H16.103M16.103 70.0155L18.5539 78.0683C19.4215 80.9191 21.5797 83.1956 24.3802 84.214V84.214C25.418 84.5914 26.5139 84.7844 27.6182 84.7844H33.7958C35.1235 84.7844 36.4462 84.6216 37.7342 84.2996L39.9833 83.7373C42.8953 83.0093 45.9788 83.517 48.5037 85.1402L49.4021 85.7177C51.1998 86.8734 53.3763 87.2851 55.4719 86.866V86.866C56.9141 86.5776 58.2528 85.9082 59.3489 84.9275L61.9113 82.6348C65.5177 79.4081 70.8708 79.0887 74.8352 81.8638V81.8638C77.468 83.7067 80.8038 84.2318 83.8754 83.2867L84.1417 83.2047C85.4481 82.8027 86.6681 82.1606 87.739 81.3112L96.0636 74.709C99.8315 71.7207 104.688 70.4667 109.432 71.2573V71.2573C113.114 71.871 116.493 73.6791 119.046 76.4027L120.379 77.824C122.319 79.8934 123.855 82.3071 124.908 84.9409L126.262 88.3248C127.887 92.3867 130.946 95.7111 134.859 97.6676V97.6676C137.339 98.9077 140.074 99.5533 142.847 99.5533H148.476L159.416 100.647V100.647C161.018 100.647 162.139 99.0632 161.606 97.5525L160.387 94.1003C159.789 92.4041 160.165 90.5163 161.368 89.1793L162.428 88.0017C163.66 86.6332 165.347 85.7598 167.176 85.5447L169.073 85.3215C172.022 84.9745 174.999 85.6761 177.482 87.3032L189.501 95.1774L194.873 98.1619C197.822 99.8004 200.393 102.042 202.418 104.742L205.911 109.399L211.48 117.538C212.489 119.013 213.879 120.188 215.501 120.937L216.129 121.226C218.641 122.386 221.559 122.259 223.962 120.886V120.886L230.65 118.132C232.344 117.435 234.219 117.313 235.988 117.785V117.785C239.295 118.667 241.731 121.475 242.136 124.874L245.175 150.404C246.238 159.331 252.643 166.704 261.333 169.004L262.92 169.424C264.646 169.881 266.444 169.995 268.213 169.759V169.759C271.754 169.286 275.34 170.223 278.198 172.367L281.06 174.513C282.009 175.225 282.859 176.06 283.588 176.997L284.784 178.535C285.78 179.816 287.166 180.74 288.732 181.167V181.167C291.002 181.786 292.85 183.434 293.724 185.619L294.158 186.704C294.401 187.313 294.583 187.945 294.701 188.59L294.782 189.038C295.306 191.918 297.208 194.359 299.874 195.571V195.571C301.035 196.099 302.295 196.372 303.57 196.372H311.481M311.481 196.372L312.178 191.027C312.746 186.676 315.958 183.136 320.233 182.15V182.15L320.302 182.142C323.371 181.801 326.12 180.088 327.778 177.483V177.483C328.573 176.233 329.086 174.825 329.282 173.357L331.033 160.229C331.126 159.531 331.119 158.822 331.011 158.126V158.126C330.471 154.611 332.508 151.208 335.862 150.024L337.926 149.295C338.888 148.956 339.793 148.472 340.609 147.86L342.378 146.533C345.937 143.864 350.65 143.299 354.738 145.051V145.051C355.436 145.35 356.106 145.713 356.738 146.134L361.326 149.193C363.065 150.352 365.108 150.971 367.198 150.971V150.971C369.041 150.971 370.851 150.49 372.451 149.576L372.549 149.52C375.747 147.693 379.646 147.584 382.94 149.231L383.646 149.584C384.759 150.141 385.95 150.528 387.178 150.733L395.171 152.065L402.259 153.557C404.437 154.016 406.689 154.003 408.862 153.52L412.409 152.732C414.325 152.306 415.982 151.112 416.992 149.428L417.073 149.294C418.1 147.581 419.827 146.406 421.797 146.078L422.923 145.89C424.387 145.646 425.879 146.124 426.929 147.174L427.718 147.963C429.077 149.322 431.281 149.322 432.641 147.963V147.963C433.173 147.43 433.519 146.739 433.625 145.993L434.142 142.373C434.415 140.466 435.066 138.633 436.057 136.982L441.37 128.126C443.337 124.849 446.322 122.306 449.871 120.886V120.886L454.688 118.822C456.574 118.013 458.349 116.967 459.969 115.707L461.608 114.432C462.169 113.995 462.773 113.615 463.409 113.297L465.488 112.257C467.67 111.166 470.268 111.328 472.298 112.681V112.681M311.481 196.372H310.387M472.298 112.681H475.235C476.557 112.681 477.876 112.79 479.18 113.008L480.689 113.259C482.744 113.602 484.835 113.675 486.91 113.478L495.272 112.681M472.298 112.681V113.228M495.272 112.681L496.391 111.562C499.591 108.362 501.821 104.323 502.824 99.9103L503.427 97.2564C503.824 95.5112 504.024 93.7271 504.024 91.9374V84.7844L504.52 75.365C504.554 74.7186 504.668 74.0789 504.862 73.461L506.094 69.5163C506.752 67.4112 509.044 66.2913 511.109 67.0657L511.186 67.0947C511.514 67.2178 511.821 67.3921 512.095 67.6112V67.6112C513.417 68.6686 515.322 68.563 516.519 67.3661L522.336 61.5489C523.885 59.9999 526.096 59.3094 528.251 59.7013V59.7013C529.907 60.0023 531.388 60.9176 532.397 62.2639L532.593 62.5251C533.576 63.836 534.961 64.7893 536.537 65.2394L540.266 66.3048C541.251 66.5862 542.29 66.6172 543.29 66.395V66.395C545.399 65.9263 547.108 64.3855 547.791 62.3358L548.459 60.3312C548.737 59.4979 549.124 58.7053 549.612 57.9744L552.728 53.2992C553.677 51.8769 555.48 51.2953 557.08 51.8955L558.028 52.2509C558.468 52.4158 558.81 52.7706 558.958 53.2162V53.2162C559.339 54.3573 560.814 54.6542 561.606 53.749L563.646 51.4177V51.4177C564.923 49.8224 567.14 49.3354 568.967 50.249L574.265 52.8978C574.478 53.0047 574.679 53.1359 574.863 53.2889L576.414 54.5815C577.157 55.2006 578.283 54.9651 578.715 54.1002V54.1002C579.268 52.9949 580.845 52.9949 581.398 54.1002L582.13 55.566C582.206 55.7173 582.265 55.8764 582.306 56.0406L582.555 57.0357C583.067 59.0864 584.128 60.9592 585.622 62.4538L585.701 62.5321C587.025 63.8562 588.639 64.8539 590.416 65.446L591.238 65.7201C594.286 66.736 597.571 66.7947 600.653 65.8882L604.324 64.8084C604.919 64.6336 605.529 64.5173 606.146 64.4612L609.124 64.1905C610.442 64.0707 611.732 64.6203 612.559 65.6538V65.6538C613.118 66.3528 613.423 67.2212 613.423 68.1164V73.0744C613.423 73.9177 613.758 74.7265 614.354 75.3229V75.3229C615.408 76.3767 617.053 76.5572 618.31 75.7571L620.572 74.3173C621.619 73.6513 622.834 73.2975 624.074 73.2975H624.363M495.272 112.681L497.144 110.809M624.363 73.2975H622.722" stroke="#FBF7F3"/>
<path d="M495.272 113.229L496.392 112.11C499.592 108.91 501.822 104.871 502.824 100.458L503.428 97.8041C503.824 96.059 504.024 94.2749 504.024 92.4852V85.3322L504.52 75.9128C504.554 75.2664 504.669 74.6267 504.862 74.0088L506.095 70.0641C506.753 67.959 509.044 66.8391 511.109 67.6135L511.187 67.6425C511.515 67.7656 511.822 67.9399 512.096 68.1589C513.417 69.2164 515.323 69.1108 516.52 67.9139L522.337 62.0967C523.886 60.5477 526.096 59.8572 528.252 60.2491C529.907 60.5501 531.388 61.4654 532.398 62.8117L532.594 63.0728C533.577 64.3838 534.962 65.337 536.538 65.7872L540.267 66.8526C541.251 67.134 542.291 67.165 543.291 66.9428C545.4 66.4741 547.108 64.9332 547.791 62.8836L548.46 60.879C548.737 60.0456 549.125 59.2531 549.612 58.5222L552.729 53.847C553.677 52.4247 555.48 51.8431 557.081 52.4433L558.029 52.7987C558.469 52.9636 558.81 53.3183 558.959 53.764C559.339 54.9051 560.815 55.202 561.607 54.2968L563.647 51.9655C564.923 50.3702 567.14 49.8832 568.968 50.7968L574.265 53.4456C574.479 53.5525 574.68 53.6837 574.863 53.8367L576.414 55.1293C577.157 55.7484 578.283 55.5129 578.716 54.648C579.268 53.5427 580.846 53.5427 581.398 54.648L582.131 56.1137C582.207 56.2651 582.266 56.4242 582.307 56.5884L582.555 57.5834C583.068 59.6341 584.128 61.5069 585.623 63.0016L585.701 63.0799C587.025 64.404 588.64 65.4017 590.416 65.9938L591.239 66.2679C594.286 67.2838 597.572 67.3425 600.654 66.436L604.325 65.3562C604.919 65.1814 605.529 65.0651 606.146 65.009L609.125 64.7383C610.443 64.6184 611.733 65.1681 612.56 66.2016C613.119 66.9005 613.424 67.769 613.424 68.6642V73.6222C613.424 74.4655 613.759 75.2743 614.355 75.8706C615.409 76.9245 617.053 77.105 618.311 76.3049L620.573 74.8651C621.62 74.1991 622.835 73.8453 624.075 73.8453H624.364L627.372 76.8538L629.428 78.9099C630.061 79.5424 630.613 80.2501 631.074 81.0172L632.301 83.0625C633.165 84.5031 633.357 86.2495 632.826 87.8433C632.655 88.3547 632.414 88.8396 632.108 89.2838L631.493 90.1788C628.487 94.5508 628.333 100.281 631.1 104.809L631.802 105.957C632.308 106.786 632.973 107.506 633.758 108.077L635.425 109.289C637.268 110.63 637.924 113.077 636.998 115.16C636.607 116.04 635.961 116.784 635.143 117.295L627.646 121.981C623.111 124.772 619.938 129.341 618.894 134.562L617.8 141.126L612.813 157.899C612.13 160.197 611.107 162.379 609.777 164.373L601.937 176.134C600.522 178.61 600.005 181.499 600.474 184.313L600.873 186.706C601.215 188.761 601.89 190.746 602.87 192.584L605.766 198.013L610.142 207.859L612.8 215.835C613.213 217.074 613.424 218.371 613.424 219.677C613.424 221.265 613.113 222.837 612.508 224.304L608.243 234.662L605.766 240.679L602.007 245.377C601.601 245.885 601.081 246.289 600.49 246.558L597.545 247.897C596.467 248.387 595.224 247.691 595.077 246.516C594.944 245.457 593.904 244.76 592.873 245.041L590.245 245.757C589.317 246.011 588.507 246.581 587.955 247.369L585.713 250.571C585.225 251.269 584.798 252.006 584.435 252.776L580.604 260.918L577.869 269.123L575.432 276.781L574.04 281.157L572.957 281.879C570.571 283.469 567.53 283.706 564.926 282.505C563.048 281.638 561.565 280.097 560.769 278.188L559.993 276.325C559.514 275.176 559.197 273.966 559.052 272.73L558.482 267.888C558.279 266.164 558.264 264.423 558.437 262.695L558.823 258.831C559.119 255.872 558.863 252.884 558.067 250.019L557.273 247.161C556.783 245.398 556.094 243.697 555.218 242.092L555.136 241.942C553.89 239.657 553.023 237.184 552.571 234.62L552.528 234.378C551.925 230.962 552.07 227.455 552.953 224.1L553.565 221.775C554.085 219.799 554.855 217.898 555.857 216.117L558.146 212.047C558.894 210.717 559.514 209.318 559.997 207.871L563.003 198.851C563.43 197.572 563.647 196.232 563.647 194.883V191.247C563.647 189.323 562.686 187.527 561.085 186.459C559.597 185.467 558.654 183.839 558.535 182.055L558.177 176.681V167.165C558.177 166.946 558.15 166.727 558.097 166.514L557.859 165.562C557.496 164.111 555.753 163.523 554.586 164.457C554.428 164.583 554.253 164.685 554.066 164.76L553.77 164.878C552.427 165.415 550.904 165.225 549.735 164.375L548.246 163.292C546.755 162.208 544.679 162.466 543.499 163.882C543.082 164.382 542.534 164.756 541.917 164.962L541.744 165.019C539.065 165.912 536.297 163.918 536.297 161.093V158.76C536.297 157.086 535.134 155.636 533.5 155.273C532.194 154.983 530.836 155.446 529.98 156.473L526.732 160.372C526.189 161.023 525.487 161.521 524.694 161.819C522.789 162.533 520.641 161.992 519.302 160.461L518.399 159.429C517.956 158.923 517.763 158.245 517.874 157.582C518.079 156.351 517.242 155.189 516.009 154.995L507.853 153.707L507.306 149.878L506.759 145.502L506.302 142.759C506.242 142.4 506.212 142.037 506.212 141.673V140.909C506.212 139.647 506.714 138.437 507.606 137.544C508.128 137.022 508.522 136.385 508.756 135.684L509.697 132.86C510.287 131.089 510.588 129.234 510.588 127.367V126.201C510.588 125.214 510.48 124.23 510.266 123.266C509.76 120.989 508.675 118.882 507.114 117.149L505.571 115.434C504.909 114.698 504.13 114.078 503.265 113.597C500.971 112.323 498.232 112.119 495.775 113.041L495.272 113.229Z" fill="#DDDDDD"/>
<path d="M498.281 110.221L495.272 113.229M495.272 113.229L496.392 112.11C499.592 108.91 501.822 104.871 502.824 100.458L503.428 97.8041C503.824 96.059 504.024 94.2749 504.024 92.4852V85.3322L504.52 75.9128C504.554 75.2664 504.669 74.6267 504.862 74.0088L506.095 70.0641C506.753 67.959 509.044 66.8391 511.109 67.6135L511.187 67.6425C511.515 67.7656 511.822 67.9399 512.096 68.1589V68.1589C513.417 69.2164 515.323 69.1108 516.52 67.9139L522.337 62.0967C523.886 60.5477 526.096 59.8572 528.252 60.2491V60.2491C529.907 60.5501 531.388 61.4654 532.398 62.8117L532.594 63.0728C533.577 64.3838 534.962 65.337 536.538 65.7872L540.267 66.8526C541.251 67.134 542.291 67.165 543.291 66.9428V66.9428C545.4 66.4741 547.108 64.9332 547.791 62.8836L548.46 60.879C548.737 60.0456 549.125 59.2531 549.612 58.5222L552.729 53.847C553.677 52.4247 555.48 51.8431 557.081 52.4433L558.029 52.7987C558.469 52.9636 558.81 53.3183 558.959 53.764V53.764C559.339 54.9051 560.815 55.202 561.607 54.2968L563.647 51.9655V51.9655C564.923 50.3702 567.14 49.8832 568.968 50.7968L574.265 53.4456C574.479 53.5525 574.68 53.6837 574.863 53.8367L576.414 55.1293C577.157 55.7484 578.283 55.5129 578.716 54.648V54.648C579.268 53.5427 580.846 53.5427 581.398 54.648L582.131 56.1137C582.207 56.2651 582.266 56.4242 582.307 56.5884L582.555 57.5834C583.068 59.6341 584.128 61.5069 585.623 63.0016L585.701 63.0799C587.025 64.404 588.64 65.4017 590.416 65.9938L591.239 66.2679C594.286 67.2838 597.572 67.3425 600.654 66.436L604.325 65.3562C604.919 65.1814 605.529 65.0651 606.146 65.009L609.125 64.7383C610.443 64.6184 611.733 65.1681 612.56 66.2016V66.2016C613.119 66.9005 613.424 67.769 613.424 68.6642V73.6222C613.424 74.4655 613.759 75.2743 614.355 75.8706V75.8706C615.409 76.9245 617.053 77.105 618.311 76.3049L620.573 74.8651C621.62 74.1991 622.835 73.8453 624.075 73.8453H624.364M495.272 113.229L495.775 113.041C498.232 112.119 500.971 112.323 503.265 113.597V113.597C504.13 114.078 504.909 114.698 505.571 115.434L507.114 117.149C508.675 118.882 509.76 120.989 510.266 123.266V123.266C510.48 124.23 510.588 125.214 510.588 126.201V127.367C510.588 129.234 510.287 131.089 509.697 132.86L508.756 135.684C508.522 136.385 508.128 137.022 507.606 137.544V137.544C506.714 138.437 506.212 139.647 506.212 140.909V141.673C506.212 142.037 506.242 142.4 506.302 142.759L506.759 145.502L507.306 149.878L507.853 153.707M624.364 73.8453L627.372 76.8538M624.364 73.8453L629.428 78.9099C630.061 79.5424 630.613 80.2501 631.074 81.0172L632.301 83.0625C633.165 84.5031 633.357 86.2495 632.826 87.8433V87.8433C632.655 88.3547 632.414 88.8396 632.108 89.2838L631.493 90.1788C628.487 94.5508 628.333 100.281 631.1 104.809L631.802 105.957C632.308 106.786 632.973 107.506 633.758 108.077L635.425 109.289C637.268 110.63 637.924 113.077 636.998 115.16V115.16C636.607 116.04 635.961 116.784 635.143 117.295L627.646 121.981V121.981C623.111 124.772 619.938 129.341 618.894 134.562V134.562L617.8 141.126L612.813 157.899C612.13 160.197 611.107 162.379 609.777 164.373L601.937 176.134V176.134C600.522 178.61 600.005 181.499 600.474 184.313L600.873 186.706C601.215 188.761 601.89 190.746 602.87 192.584L605.766 198.013L610.142 207.859L612.8 215.835C613.213 217.074 613.424 218.371 613.424 219.677V219.677C613.424 221.265 613.113 222.837 612.508 224.304L605.766 240.679M507.853 153.707V158.63M507.853 153.707L516.009 154.995C517.242 155.189 518.079 156.351 517.874 157.582V157.582C517.763 158.245 517.956 158.923 518.399 159.429L519.302 160.461C520.641 161.992 522.789 162.533 524.694 161.819V161.819C525.487 161.521 526.189 161.023 526.732 160.372L529.98 156.473C530.836 155.446 532.194 154.983 533.5 155.273V155.273C535.134 155.636 536.297 157.086 536.297 158.76V161.093C536.297 163.918 539.065 165.912 541.744 165.019L541.917 164.962C542.534 164.756 543.082 164.382 543.499 163.882V163.882C544.679 162.466 546.755 162.208 548.246 163.292L549.735 164.375C550.904 165.225 552.427 165.415 553.77 164.878L554.066 164.76C554.253 164.685 554.428 164.583 554.586 164.457V164.457C555.753 163.523 557.496 164.111 557.859 165.562L558.097 166.514C558.15 166.727 558.177 166.946 558.177 167.165V176.681L558.535 182.055C558.654 183.839 559.597 185.467 561.085 186.459V186.459C562.686 187.527 563.647 189.323 563.647 191.247V194.883C563.647 196.232 563.43 197.572 563.003 198.851L559.997 207.871C559.514 209.318 558.894 210.717 558.146 212.047L555.857 216.117C554.855 217.898 554.085 219.799 553.565 221.776L552.953 224.1C552.07 227.455 551.925 230.962 552.528 234.378L552.571 234.62C553.023 237.184 553.89 239.657 555.136 241.942L555.218 242.092C556.094 243.697 556.783 245.398 557.273 247.161L558.067 250.019C558.863 252.884 559.119 255.872 558.823 258.831L558.437 262.695C558.264 264.423 558.279 266.164 558.482 267.888L559.052 272.73C559.197 273.966 559.514 275.176 559.993 276.325L560.769 278.188C561.565 280.097 563.048 281.638 564.926 282.505V282.505C567.53 283.706 570.571 283.469 572.957 281.879L574.04 281.157M575.432 276.781L574.04 281.157M574.04 281.157L577.869 269.123L580.604 260.918L584.435 252.776C584.798 252.006 585.225 251.269 585.713 250.571L587.955 247.369C588.507 246.581 589.317 246.011 590.245 245.757L592.873 245.041C593.904 244.76 594.944 245.457 595.077 246.516V246.516C595.224 247.691 596.467 248.387 597.545 247.897L600.49 246.558C601.081 246.289 601.601 245.885 602.007 245.377L605.766 240.679M605.766 240.679L608.243 234.662" stroke="#FBF7F3"/>
<path d="M555.989 335.857L579.676 317.713C580.988 316.709 581.933 315.302 582.368 313.708C582.981 311.462 582.503 309.033 581.106 307.17C580.421 306.258 579.941 305.191 579.717 304.072L579.499 302.985C579.149 301.232 579.304 299.416 579.945 297.748C581.044 294.89 580.688 291.676 578.989 289.128L577.322 286.627L573.493 281.704L572.41 282.426L572.405 282.429C570.02 284.017 566.981 284.253 564.379 283.052C562.501 282.185 561.018 280.644 560.222 278.735L559.446 276.872C558.967 275.723 558.65 274.513 558.505 273.277L557.935 268.435C557.732 266.711 557.717 264.97 557.89 263.243L558.276 259.378C558.572 256.419 558.316 253.431 557.52 250.566L556.726 247.708C556.236 245.945 555.547 244.244 554.671 242.639L554.589 242.489C553.343 240.204 552.476 237.731 552.024 235.167L551.981 234.925C551.378 231.509 551.523 228.002 552.406 224.647L553.018 222.323C553.538 220.347 554.308 218.445 555.31 216.664L557.599 212.594C558.347 211.264 558.967 209.866 559.45 208.418L562.456 199.398C562.883 198.119 563.1 196.779 563.1 195.43V191.794C563.1 189.87 562.139 188.074 560.538 187.007C559.049 186.014 558.107 184.386 557.988 182.602L557.63 177.228V167.712C557.63 167.493 557.603 167.274 557.55 167.061L557.312 166.109C556.949 164.658 555.206 164.07 554.039 165.004C553.881 165.13 553.706 165.232 553.519 165.307L553.223 165.425C551.88 165.962 550.357 165.772 549.188 164.922L547.699 163.839C546.208 162.755 544.132 163.013 542.952 164.429C542.535 164.929 541.987 165.303 541.37 165.509L541.197 165.566C538.518 166.459 535.75 164.465 535.75 161.64V159.308C535.75 157.633 534.587 156.183 532.953 155.82C531.647 155.53 530.289 155.993 529.433 157.021L526.185 160.919C525.642 161.57 524.94 162.068 524.147 162.366C522.242 163.08 520.094 162.539 518.755 161.008L517.852 159.977C517.409 159.47 517.216 158.792 517.327 158.129C517.532 156.898 516.695 155.736 515.462 155.542L510.771 154.801L507.306 154.254V158.271C507.306 158.851 507.076 159.407 506.666 159.818C505.811 160.672 505.811 162.058 506.666 162.912L507.001 163.247C507.203 163.45 507.372 163.683 507.498 163.939C508.074 165.115 508.947 166.991 508.947 167.382C508.947 167.637 508.327 168.774 507.628 169.967C506.71 171.534 505.564 172.953 504.28 174.238L502.719 175.798C502.496 176.022 502.254 176.226 501.998 176.409L499.796 177.982C499.058 178.509 498.75 179.456 499.037 180.316C499.08 180.445 499.11 180.578 499.127 180.713L499.432 183.15C499.575 184.302 499.565 185.468 499.401 186.617C499.203 188.006 498.781 189.355 498.154 190.61L496.366 194.185C495.646 195.985 495.337 197.924 495.462 199.859L496.307 212.962C496.347 213.569 496.306 214.179 496.187 214.775L495.702 217.197C495.442 218.497 495.993 219.827 497.097 220.563C498.007 221.17 498.554 222.192 498.554 223.287V224.647C498.554 225.123 498.496 225.597 498.381 226.058L498.007 227.551C497.644 229.005 497.46 230.497 497.46 231.995V233.992C497.46 235.882 497.8 237.757 498.464 239.527C498.888 240.656 499.439 241.733 500.108 242.736L502.383 246.149L502.799 246.814C504.315 249.239 505.118 252.042 505.118 254.901V259.277V262.322C505.118 265.694 504.171 268.998 502.383 271.858L502.182 272.261C500.516 275.593 499.648 279.268 499.648 282.994V289.362V293.549C499.648 295.129 499.821 296.704 500.164 298.247L500.325 298.969C500.602 300.218 501.032 301.427 501.604 302.571C502.122 303.608 502.754 304.584 503.488 305.481L507.306 310.148C509.35 312.192 510.209 315.139 509.581 317.961L509.494 318.353L509.088 320.384C508.635 322.648 507.681 324.781 506.296 326.628C505.514 327.671 504.603 328.611 503.586 329.425L502.383 330.387L504.23 334.08C504.821 335.262 505.314 336.492 505.703 337.755L506.82 341.388C507.144 342.439 507.554 343.462 508.045 344.446C509.005 346.365 510.268 348.117 511.785 349.635L513.87 351.72L516.02 354.176C517.136 355.452 518.114 356.843 518.938 358.325L520.434 361.019L522.075 363.207L523.716 365.395L535.203 355.002L547.784 344.062L555.989 335.857Z" fill="#DDDDDD"/>
<path d="M523.716 365.394L535.203 355.002L547.784 344.062L555.989 335.857L579.676 317.713C580.988 316.709 581.933 315.302 582.368 313.708V313.708C582.981 311.462 582.503 309.033 581.106 307.17V307.17C580.421 306.258 579.941 305.191 579.717 304.072L579.5 302.985C579.149 301.232 579.304 299.416 579.945 297.748V297.748C581.044 294.89 580.688 291.676 578.989 289.128L577.322 286.627L573.493 281.704M523.716 365.394L526.451 363.207M523.716 365.394L522.075 363.207L520.434 361.019L518.938 358.325C518.114 356.843 517.136 355.452 516.02 354.176L513.87 351.72L511.785 349.635C510.268 348.117 509.005 346.365 508.045 344.446V344.446C507.554 343.462 507.144 342.439 506.82 341.388L505.703 337.755C505.314 336.492 504.821 335.262 504.23 334.08L502.383 330.387M510.771 154.801L507.306 154.254M507.306 154.254V158.271C507.306 158.851 507.076 159.407 506.666 159.818V159.818C505.811 160.672 505.811 162.058 506.666 162.912L507.001 163.247C507.203 163.45 507.372 163.683 507.498 163.939C508.074 165.115 508.947 166.991 508.947 167.382C508.947 167.637 508.327 168.774 507.628 169.967C506.71 171.534 505.564 172.953 504.28 174.238L502.719 175.798C502.496 176.022 502.254 176.226 501.998 176.409L499.796 177.982C499.058 178.509 498.75 179.456 499.037 180.316V180.316C499.08 180.445 499.11 180.578 499.127 180.713L499.432 183.15C499.575 184.302 499.565 185.468 499.401 186.617V186.617C499.203 188.006 498.781 189.355 498.154 190.61L496.366 194.185V194.185C495.646 195.985 495.337 197.924 495.462 199.859L496.307 212.962C496.347 213.569 496.306 214.179 496.187 214.775L495.702 217.197C495.442 218.497 495.993 219.827 497.097 220.563V220.563C498.007 221.17 498.554 222.192 498.554 223.287V224.647C498.554 225.123 498.496 225.597 498.381 226.058L498.007 227.551C497.644 229.005 497.46 230.497 497.46 231.995V233.992C497.46 235.882 497.8 237.757 498.464 239.527V239.527C498.888 240.656 499.439 241.733 500.108 242.736L502.383 246.149L502.799 246.814C504.315 249.239 505.118 252.042 505.118 254.901V254.901V259.277V262.322C505.118 265.694 504.171 268.998 502.383 271.858V271.858L502.182 272.261C500.516 275.593 499.648 279.268 499.648 282.994V289.362V293.549C499.648 295.129 499.821 296.704 500.164 298.247L500.325 298.969C500.602 300.218 501.032 301.427 501.604 302.571V302.571C502.122 303.608 502.754 304.584 503.488 305.481L507.306 310.148V310.148C509.35 312.192 510.209 315.139 509.581 317.961L509.494 318.353L509.088 320.384C508.635 322.648 507.681 324.781 506.296 326.628V326.628C505.514 327.671 504.603 328.611 503.586 329.425L502.383 330.387M507.306 154.254L515.462 155.542C516.695 155.736 517.532 156.898 517.327 158.129V158.129C517.216 158.792 517.409 159.47 517.852 159.977L518.755 161.008C520.094 162.539 522.242 163.08 524.147 162.366V162.366C524.94 162.068 525.642 161.57 526.185 160.919L529.433 157.021C530.289 155.993 531.647 155.53 532.953 155.82V155.82C534.587 156.183 535.75 157.633 535.75 159.308V161.64C535.75 164.465 538.518 166.459 541.197 165.566L541.37 165.509C541.987 165.303 542.535 164.929 542.952 164.429V164.429C544.132 163.013 546.208 162.755 547.699 163.839L549.188 164.922C550.357 165.772 551.88 165.962 553.223 165.425L553.519 165.307C553.706 165.232 553.881 165.13 554.039 165.004V165.004C555.206 164.07 556.949 164.658 557.312 166.109L557.55 167.061C557.603 167.274 557.63 167.493 557.63 167.712V177.228L557.988 182.602C558.107 184.386 559.05 186.014 560.538 187.007V187.007C562.139 188.074 563.1 189.87 563.1 191.794V195.43C563.1 196.779 562.883 198.119 562.456 199.398L559.45 208.418C558.967 209.866 558.347 211.264 557.599 212.594L555.31 216.664C554.308 218.445 553.538 220.347 553.018 222.323L552.406 224.647C551.523 228.002 551.378 231.509 551.981 234.925L552.024 235.167C552.476 237.731 553.343 240.204 554.589 242.489L554.671 242.639C555.547 244.244 556.236 245.945 556.726 247.708L557.52 250.566C558.316 253.431 558.572 256.419 558.276 259.378L557.89 263.243C557.717 264.97 557.732 266.711 557.935 268.435L558.505 273.277C558.65 274.513 558.967 275.723 559.446 276.872L560.222 278.735C561.018 280.644 562.501 282.185 564.379 283.052V283.052C566.983 284.254 570.024 284.017 572.41 282.426L573.493 281.704M502.383 330.387L503.751 329.293M573.493 281.704L571.031 283.345" stroke="#FBF7F3"/>
<path d="M633.662 59.0781L637.266 62.9071L640.61 66.46C641.809 67.7342 643.144 68.8735 644.591 69.8574L656.089 77.676L669.764 84.787L679.952 91.4315C681.541 92.4681 683.248 93.3125 685.037 93.9471L694.191 97.1955C697.556 98.3894 700.611 100.319 703.136 102.843L709.051 108.758C711.281 110.989 713.05 113.637 714.256 116.552L716.364 121.644C718.082 125.798 720.933 129.385 724.59 131.997L727.225 133.88C729.38 135.419 731.266 137.304 732.805 139.46L736.703 144.917C738.018 146.757 739.065 148.775 739.812 150.91C741.563 155.915 744.906 160.238 749.455 162.961C751.584 164.235 753.545 165.341 754.548 165.742C755.976 166.314 761.053 167.226 765.828 167.994C770.248 168.705 774.417 170.549 777.847 173.426L785.881 180.164C788.307 182.199 790.306 184.694 791.764 187.505L792.087 188.128C795.338 194.398 795.663 201.782 792.973 208.314L790.61 214.054C789.91 215.754 789.016 217.369 787.947 218.865L783.676 224.845C782.137 227 780.251 228.886 778.096 230.425L768.27 237.443C766.785 238.504 765.184 239.392 763.497 240.09L754.307 243.893C751.574 245.024 749.074 246.65 746.932 248.69L742.53 252.882C739.997 255.294 738.023 258.23 736.744 261.486L735.916 263.594C733.852 268.847 729.623 272.956 724.312 274.868C720.837 276.119 717.079 276.362 713.472 275.571L699.109 272.418C697.419 272.047 695.694 271.86 693.963 271.86H685.387C683.386 271.86 681.413 272.326 679.623 273.22L677.467 274.299C674.422 275.821 672.499 278.933 672.499 282.337C672.499 283.367 672.676 284.389 673.022 285.36L673.639 287.086C674.638 289.883 674.204 292.993 672.477 295.41C670.774 297.795 668.025 299.21 665.095 299.21H657.73H652.807V297.039C652.807 295.573 652.646 294.112 652.328 292.681L652.243 292.296C651.891 290.713 651.319 289.188 650.543 287.766L650.244 287.218C649.054 285.037 648.431 282.591 648.431 280.106V279.51C648.431 279.151 648.403 278.792 648.349 278.438C647.781 274.745 644.431 272.136 640.711 272.491L638.575 272.694C636.796 272.864 635.103 273.541 633.698 274.645L631.418 276.436C629.291 278.107 626.836 279.31 624.212 279.966L619.127 281.237C617.9 281.544 616.78 282.178 615.885 283.072L613.428 285.53C612.772 286.186 611.769 286.349 610.94 285.934C610.428 285.678 610.04 285.23 609.859 284.688L609.023 282.179C608.336 280.118 608.46 277.873 609.37 275.9L610.295 273.896C610.918 272.547 611.324 271.108 611.497 269.632L612.329 262.561V258.546C612.329 255.113 608.717 252.88 605.646 254.415L605.158 254.659C604.838 254.819 604.485 254.903 604.127 254.903C602.171 254.903 601.102 252.622 602.354 251.119L604.02 249.121C604.445 248.61 604.718 247.989 604.806 247.33L605.765 240.134L607.117 236.852L612.508 223.759C613.112 222.291 613.423 220.719 613.423 219.132C613.423 217.826 613.213 216.528 612.799 215.289L610.141 207.314L605.765 197.468L602.869 192.038C601.889 190.201 601.215 188.215 600.872 186.161L600.473 183.767C600.004 180.954 600.521 178.065 601.936 175.588L609.777 163.828C611.106 161.833 612.129 159.651 612.812 157.354L617.799 140.581L618.893 134.017C619.937 128.795 623.11 124.226 627.645 121.436L635.143 116.75C635.96 116.239 636.606 115.495 636.998 114.614C637.923 112.531 637.267 110.085 635.424 108.744L633.757 107.532C632.972 106.961 632.307 106.24 631.801 105.412L631.099 104.263C628.333 99.7362 628.487 94.0055 631.492 89.6335L632.108 88.7385C632.413 88.2943 632.654 87.8094 632.825 87.298C633.356 85.7042 633.164 83.9578 632.3 82.5172L631.073 80.4719C630.613 79.7049 630.06 78.9971 629.428 78.3646L626.004 74.941L624.363 73.3L624.839 71.8718C625.602 69.5834 626.961 67.5397 628.776 65.9513C629.839 65.0215 630.75 63.9316 631.476 62.7209L633.662 59.0781Z" fill="#DDDDDD"/>
<path d="M637.266 62.9071L633.662 59.0781M633.662 59.0781L640.61 66.46C641.809 67.7342 643.144 68.8735 644.591 69.8574L656.089 77.676L669.764 84.787L679.952 91.4315C681.541 92.4681 683.248 93.3125 685.037 93.9471L694.191 97.1955C697.556 98.3894 700.611 100.319 703.136 102.843L709.051 108.758C711.281 110.989 713.05 113.637 714.256 116.552L716.364 121.644C718.082 125.798 720.933 129.385 724.59 131.997L727.225 133.88C729.38 135.419 731.266 137.304 732.805 139.46L736.703 144.917C738.018 146.757 739.065 148.775 739.812 150.91V150.91C741.563 155.915 744.906 160.238 749.455 162.961C751.584 164.235 753.545 165.341 754.548 165.742C755.976 166.314 761.053 167.226 765.828 167.994C770.248 168.705 774.417 170.549 777.847 173.426L785.881 180.164C788.307 182.199 790.306 184.694 791.764 187.505L792.087 188.128C795.338 194.398 795.663 201.782 792.973 208.314L790.61 214.054C789.91 215.754 789.016 217.369 787.947 218.865L783.676 224.845C782.137 227 780.251 228.886 778.096 230.425L768.27 237.443C766.785 238.504 765.184 239.392 763.497 240.09L754.307 243.893C751.574 245.024 749.074 246.65 746.932 248.69L742.53 252.882C739.997 255.294 738.023 258.23 736.744 261.486L735.916 263.594C733.852 268.847 729.623 272.956 724.312 274.868V274.868C720.837 276.119 717.079 276.362 713.472 275.571L699.109 272.418C697.419 272.047 695.694 271.86 693.963 271.86H685.387C683.386 271.86 681.413 272.326 679.623 273.22L677.467 274.299C674.422 275.821 672.499 278.933 672.499 282.337V282.337C672.499 283.367 672.676 284.389 673.022 285.36L673.639 287.086C674.638 289.883 674.204 292.993 672.477 295.41V295.41C670.774 297.795 668.025 299.209 665.095 299.209H652.807M633.662 59.0781L631.476 62.7209C630.75 63.9316 629.839 65.0215 628.776 65.9513V65.9513C626.961 67.5397 625.602 69.5834 624.839 71.8718L624.363 73.3M652.807 299.209H657.73M652.807 299.209V297.039C652.807 295.573 652.646 294.112 652.328 292.681L652.243 292.296C651.891 290.713 651.319 289.188 650.543 287.766L650.244 287.218C649.054 285.037 648.431 282.591 648.431 280.106V279.51C648.431 279.151 648.403 278.792 648.349 278.438V278.438C647.781 274.745 644.431 272.136 640.711 272.491L638.575 272.694C636.796 272.864 635.103 273.541 633.698 274.645L631.418 276.436C629.291 278.107 626.836 279.31 624.212 279.966L619.127 281.237C617.9 281.544 616.78 282.178 615.885 283.072L613.428 285.53C612.772 286.186 611.769 286.349 610.94 285.934V285.934C610.428 285.678 610.04 285.23 609.859 284.688L609.023 282.179C608.336 280.118 608.46 277.873 609.37 275.9L610.295 273.896C610.918 272.547 611.324 271.108 611.497 269.632L612.329 262.561V258.546C612.329 255.113 608.717 252.88 605.646 254.415L605.158 254.659C604.838 254.819 604.485 254.903 604.127 254.903V254.903C602.171 254.903 601.102 252.622 602.354 251.119L604.02 249.121C604.445 248.61 604.718 247.989 604.806 247.33L605.765 240.134M626.004 74.941L624.363 73.3M624.363 73.3L629.428 78.3646C630.06 78.9971 630.613 79.7049 631.073 80.4719L632.3 82.5172C633.164 83.9578 633.356 85.7042 632.825 87.298V87.298C632.654 87.8094 632.413 88.2943 632.108 88.7385L631.492 89.6335C628.487 94.0055 628.333 99.7362 631.099 104.263L631.801 105.412C632.307 106.24 632.972 106.961 633.757 107.532L635.424 108.744C637.267 110.085 637.923 112.531 636.998 114.614V114.614C636.606 115.495 635.96 116.239 635.143 116.75L627.645 121.436V121.436C623.11 124.226 619.937 128.795 618.893 134.017V134.017L617.799 140.581L612.812 157.354C612.129 159.651 611.106 161.833 609.777 163.828L601.936 175.588V175.588C600.521 178.065 600.004 180.954 600.473 183.767L600.872 186.161C601.215 188.215 601.889 190.201 602.869 192.038L605.765 197.468L610.141 207.314L612.799 215.289C613.213 216.528 613.423 217.826 613.423 219.132V219.132C613.423 220.719 613.112 222.291 612.508 223.759L605.765 240.134M607.117 236.852L605.765 240.134" stroke="#FBF7F3"/>
<path d="M523.716 365.395L521.963 367.688C518.529 372.178 516.998 377.837 517.699 383.446V387.66C517.699 392.487 515.082 396.934 510.863 399.278L510.325 399.576C508.704 400.477 506.879 400.95 505.024 400.95H502.647C499.527 400.95 496.734 402.885 495.639 405.807C494.73 408.229 492.635 410.01 490.098 410.518L485.973 411.343L479.956 412.346L476.127 412.984C474.243 414.06 471.859 412.975 471.433 410.847L471.328 410.32C471.246 409.911 471.237 409.491 471.3 409.079L471.767 406.041C472.077 404.031 470.934 402.079 469.03 401.365C468.305 401.093 467.667 400.631 467.183 400.026L466.96 399.747C466.166 398.755 465.734 397.523 465.734 396.253V390.01C465.734 389.104 464.999 388.369 464.093 388.369C463.187 388.369 462.452 387.634 462.452 386.728V385.016C462.452 384.021 462.894 383.078 463.658 382.441L464.301 381.905C465.227 381.134 465.852 380.062 466.068 378.876L466.481 376.604C466.703 375.383 466.421 374.124 465.7 373.114C464.711 371.731 464.569 369.914 465.329 368.393L466.113 366.826C466.584 365.883 466.852 364.851 466.898 363.797L467.75 344.182C467.846 341.974 469.665 340.233 471.875 340.233C473.174 340.233 474.398 339.622 475.178 338.582L476.799 336.421C477.078 336.048 477.296 335.632 477.444 335.19C477.975 333.594 479.382 332.45 481.052 332.253L487.614 331.481L491.796 330.721C492.981 330.506 494.054 329.88 494.825 328.955L495.158 328.555C495.923 327.636 497.057 327.105 498.253 327.105C499.778 327.105 501.173 327.967 501.855 329.332L502.383 330.387L503.75 333.122L504.23 334.081C504.821 335.263 505.313 336.492 505.702 337.756L506.82 341.389C507.143 342.44 507.553 343.463 508.045 344.446C509.005 346.366 510.267 348.118 511.785 349.635L513.87 351.72L516.019 354.177C517.136 355.453 518.114 356.844 518.937 358.326L520.434 361.019L522.075 363.207L523.716 365.395Z" fill="#DDDDDD"/>
<path d="M521.624 368.13L523.716 365.395M523.716 365.395L521.963 367.688C518.529 372.178 516.998 377.837 517.699 383.446V383.446V387.66C517.699 392.487 515.082 396.934 510.863 399.278L510.325 399.576C508.704 400.477 506.879 400.95 505.024 400.95H502.647C499.527 400.95 496.734 402.885 495.639 405.807V405.807C494.73 408.229 492.635 410.01 490.098 410.518L485.973 411.343L476.127 412.984M523.716 365.395L522.075 363.207L520.434 361.019L518.937 358.326C518.114 356.844 517.136 355.453 516.019 354.177L513.87 351.72L511.785 349.635C510.267 348.118 509.005 346.366 508.045 344.446V344.446C507.553 343.463 507.143 342.44 506.82 341.389L505.702 337.756C505.313 336.492 504.821 335.263 504.23 334.081L502.383 330.387M476.127 412.984L479.956 412.346M476.127 412.984V412.984C474.243 414.06 471.859 412.975 471.433 410.847L471.328 410.32C471.246 409.911 471.237 409.491 471.3 409.079L471.767 406.041C472.077 404.031 470.934 402.079 469.03 401.365V401.365C468.305 401.093 467.667 400.631 467.183 400.026L466.96 399.747C466.166 398.755 465.734 397.523 465.734 396.253V390.01C465.734 389.104 464.999 388.369 464.093 388.369V388.369C463.187 388.369 462.452 387.634 462.452 386.728V385.016C462.452 384.021 462.894 383.078 463.658 382.441L464.301 381.905C465.227 381.134 465.852 380.062 466.068 378.876L466.481 376.604C466.703 375.383 466.421 374.124 465.7 373.114V373.114C464.711 371.731 464.569 369.914 465.329 368.393L466.113 366.826C466.584 365.883 466.852 364.851 466.898 363.797L467.75 344.182C467.846 341.974 469.665 340.233 471.875 340.233V340.233C473.174 340.233 474.398 339.622 475.178 338.582L476.799 336.421C477.078 336.048 477.296 335.632 477.444 335.19V335.19C477.975 333.594 479.382 332.45 481.052 332.253L487.614 331.481L491.796 330.721C492.981 330.506 494.054 329.88 494.825 328.955L495.158 328.555C495.923 327.636 497.057 327.105 498.253 327.105V327.105C499.778 327.105 501.173 327.967 501.855 329.332L502.383 330.387M503.75 333.122L502.383 330.387" stroke="#FBF7F3"/>
<path d="M411.581 350.627L408.846 345.923L399.577 329.979C398.468 328.073 397.103 326.329 395.518 324.796L380.949 310.697L365.634 299.21L351.412 287.176L337.19 275.689L320.233 261.467L307.105 252.715L300.541 247.792L302.182 246.425L303.882 245.008C306.008 243.237 307.744 241.045 308.981 238.57L309.234 238.064C309.998 236.536 310.519 234.899 310.779 233.21L311.046 231.477C311.33 229.626 311.1 227.733 310.38 226.005C309.334 223.495 309.334 220.672 310.38 218.162L310.6 217.633C311.182 216.237 312.031 214.969 313.1 213.901L314.719 212.281C315.112 211.889 315.458 211.453 315.753 210.982C317.167 208.719 317.24 205.866 315.944 203.534L315.31 202.391L311.481 196.375L312.052 191.999L312.178 191.03C312.746 186.679 315.957 183.139 320.233 182.153L320.302 182.145C323.371 181.804 326.12 180.091 327.778 177.486C328.573 176.236 329.086 174.828 329.282 173.36L331.032 160.232C331.126 159.533 331.118 158.825 331.011 158.129C330.47 154.613 332.508 151.211 335.862 150.027L337.926 149.298C338.888 148.959 339.793 148.474 340.609 147.862L342.378 146.536C345.936 143.867 350.65 143.302 354.738 145.054C355.436 145.353 356.106 145.716 356.738 146.137L361.325 149.196C363.065 150.355 365.108 150.974 367.198 150.974C369.04 150.974 370.851 150.493 372.451 149.579L372.549 149.523C375.747 147.695 379.646 147.587 382.94 149.234L383.646 149.587C384.759 150.144 385.95 150.531 387.178 150.736L395.171 152.068L402.259 153.56C404.437 154.019 406.689 154.006 408.862 153.523L412.409 152.735C414.325 152.309 415.982 151.115 416.992 149.431L417.073 149.297C418.1 147.584 419.827 146.409 421.797 146.08L422.923 145.893C424.387 145.649 425.879 146.127 426.929 147.177L427.718 147.965C429.077 149.325 431.281 149.325 432.641 147.965C433.173 147.433 433.519 146.742 433.625 145.996L434.142 142.376C434.415 140.469 435.066 138.636 436.057 136.984L441.37 128.129C443.336 124.851 446.322 122.308 449.871 120.889L454.688 118.825C456.574 118.016 458.349 116.969 459.969 115.71L461.608 114.435C462.169 113.998 462.772 113.618 463.409 113.3L465.488 112.26C467.669 111.169 470.268 111.331 472.298 112.684V114.325V115.419L472.551 117.952C472.745 119.895 472.603 121.858 472.129 123.753L471.55 126.069C471.322 126.98 471.299 127.931 471.484 128.852C471.66 129.733 472.021 130.566 472.543 131.296L473.62 132.804C474.195 133.609 474.871 134.338 475.631 134.971C477.036 136.142 478.143 137.628 478.864 139.309L481.05 144.41L482.698 147.706C483.419 149.148 483.927 150.686 484.207 152.273L484.929 156.363C485.247 158.164 484.827 160.017 483.764 161.505C483.061 162.489 482.633 163.642 482.524 164.847L482.328 167C482.206 168.343 481.9 169.664 481.42 170.925L479.236 176.658C478.284 179.157 478.184 181.9 478.953 184.462C479.256 185.471 479.688 186.436 480.241 187.333L482.785 191.467C483.449 192.546 483.969 193.707 484.333 194.92C485.05 197.308 485.142 199.841 484.601 202.275L484.415 203.111C483.647 206.565 483.922 210.169 485.205 213.466L486.114 215.804C486.747 217.433 487.201 219.126 487.467 220.853L487.633 221.938C487.983 224.211 488.004 226.523 487.696 228.802L485.426 245.604L484.016 258.292C483.877 259.543 482.974 260.576 481.753 260.881C480.383 261.223 478.96 260.569 478.328 259.306L477.986 258.622C477.841 258.332 477.733 258.025 477.66 257.71C477.257 255.965 476.526 253.114 476.127 252.715C475.941 252.529 476.209 251.876 476.663 251.075C477.942 248.815 479.085 246.455 479.512 243.893L479.784 242.26C479.898 241.577 479.898 240.879 479.784 240.196L479.758 240.04C479.532 238.687 478.838 237.457 477.797 236.565C476.401 235.368 474.524 234.899 472.729 235.298L472.606 235.325C471.34 235.607 470.196 236.285 469.342 237.261L466.828 240.134L466.141 241.164C464.476 243.661 463.846 246.708 464.383 249.661C464.554 250.599 464.84 251.513 465.234 252.382L467.375 257.091C470.139 261.929 470.538 267.78 468.469 272.954L465.734 278.971L456.435 299.757L454.794 305.227L452.04 312.571C451.689 313.507 451.232 314.398 450.678 315.229L448.361 318.705C447.588 319.864 447.394 321.316 447.834 322.638C448.093 323.415 448.558 324.106 449.18 324.639L449.582 324.984C451.139 326.318 451.966 328.315 451.809 330.359L451.79 330.603C451.616 332.867 450.342 334.9 448.381 336.044L447.323 336.661C445.773 337.565 443.994 337.999 442.202 337.909L439.711 337.785C436.004 337.599 432.333 338.589 429.22 340.612L425.262 343.185C423.817 344.124 422.595 345.368 421.682 346.829L421.118 347.73C420.601 348.558 419.913 349.267 419.101 349.808C417.776 350.692 416.185 351.088 414.6 350.929L411.581 350.627Z" fill="#DDDDDD"/>
<path d="M408.846 345.923L411.581 350.627M411.581 350.627L399.577 329.979C398.468 328.073 397.103 326.329 395.518 324.796L380.949 310.697L365.634 299.21L351.412 287.176L337.19 275.689L320.233 261.467L307.105 252.715L300.541 247.792M411.581 350.627L414.6 350.929C416.185 351.088 417.776 350.692 419.101 349.808V349.808C419.913 349.267 420.601 348.558 421.118 347.73L421.682 346.829C422.595 345.368 423.817 344.124 425.262 343.185L429.22 340.612C432.333 338.589 436.004 337.599 439.711 337.785L442.202 337.909C443.994 337.999 445.773 337.565 447.323 336.661L448.381 336.044C450.342 334.9 451.616 332.867 451.79 330.603L451.809 330.359C451.966 328.315 451.139 326.318 449.582 324.984L449.18 324.639C448.558 324.106 448.093 323.415 447.834 322.638V322.638C447.394 321.316 447.588 319.864 448.361 318.705L450.678 315.229C451.232 314.398 451.689 313.507 452.04 312.571L454.794 305.227L456.435 299.757L465.734 278.971L468.469 272.954V272.954C470.538 267.78 470.14 261.929 467.375 257.091V257.091L465.234 252.382C464.84 251.513 464.554 250.599 464.383 249.661V249.661C463.846 246.708 464.476 243.661 466.141 241.164L466.828 240.134L469.342 237.261C470.196 236.285 471.34 235.607 472.606 235.325L472.729 235.298C474.524 234.899 476.401 235.368 477.797 236.565V236.565C478.838 237.457 479.532 238.687 479.758 240.04L479.784 240.196C479.898 240.879 479.898 241.577 479.784 242.26L479.512 243.893C479.085 246.455 477.942 248.815 476.663 251.075C476.209 251.876 475.941 252.529 476.127 252.715C476.526 253.114 477.257 255.965 477.66 257.71C477.733 258.025 477.841 258.332 477.986 258.622L478.328 259.306C478.96 260.569 480.383 261.223 481.753 260.881V260.881C482.974 260.576 483.877 259.543 484.016 258.292L485.426 245.604L487.696 228.802C488.004 226.523 487.983 224.211 487.633 221.938L487.467 220.853C487.201 219.126 486.747 217.433 486.114 215.804L485.205 213.466C483.922 210.169 483.647 206.565 484.415 203.111L484.601 202.275C485.142 199.841 485.05 197.308 484.333 194.92V194.92C483.969 193.707 483.449 192.546 482.785 191.467L480.241 187.333C479.688 186.436 479.256 185.471 478.953 184.462V184.462C478.184 181.9 478.284 179.157 479.236 176.658L481.42 170.925C481.9 169.664 482.206 168.343 482.328 167L482.524 164.847C482.633 163.642 483.061 162.489 483.764 161.505V161.505C484.827 160.017 485.247 158.164 484.929 156.363L484.207 152.273C483.927 150.686 483.419 149.148 482.698 147.706L481.05 144.41L478.864 139.309C478.143 137.628 477.036 136.142 475.631 134.971V134.971C474.871 134.338 474.195 133.609 473.62 132.804L472.543 131.296C472.021 130.566 471.66 129.733 471.484 128.852V128.852C471.299 127.931 471.322 126.98 471.55 126.069L472.129 123.753C472.603 121.858 472.745 119.895 472.551 117.952L472.298 115.419V112.684M300.541 247.792L302.182 246.425M300.541 247.792L303.882 245.008C306.008 243.237 307.744 241.045 308.981 238.57L309.234 238.064C309.998 236.536 310.519 234.899 310.779 233.21L311.046 231.477C311.33 229.626 311.1 227.733 310.38 226.005V226.005C309.334 223.495 309.334 220.672 310.38 218.162L310.6 217.633C311.182 216.237 312.031 214.969 313.1 213.901L314.719 212.281C315.112 211.889 315.458 211.453 315.753 210.982V210.982C317.167 208.719 317.24 205.866 315.944 203.534L315.31 202.391L311.481 196.375M312.052 191.999L311.481 196.375M311.481 196.375L312.178 191.03C312.746 186.679 315.957 183.139 320.233 182.153V182.153L320.302 182.145C323.371 181.804 326.12 180.091 327.778 177.486V177.486C328.573 176.236 329.086 174.828 329.282 173.36L331.032 160.232C331.126 159.533 331.118 158.825 331.011 158.129V158.129C330.47 154.613 332.508 151.211 335.862 150.027L337.926 149.298C338.888 148.959 339.793 148.474 340.609 147.862L342.378 146.536C345.936 143.867 350.65 143.302 354.738 145.054V145.054C355.436 145.353 356.106 145.716 356.738 146.137L361.325 149.196C363.065 150.355 365.108 150.974 367.198 150.974V150.974C369.04 150.974 370.851 150.493 372.451 149.579L372.549 149.523C375.747 147.695 379.646 147.587 382.94 149.234L383.646 149.587C384.759 150.144 385.95 150.531 387.178 150.736L395.171 152.068L402.259 153.56C404.437 154.019 406.689 154.006 408.862 153.523L412.409 152.735C414.325 152.309 415.982 151.115 416.992 149.431L417.073 149.297C418.1 147.584 419.827 146.409 421.797 146.08L422.923 145.893C424.387 145.649 425.879 146.127 426.929 147.177L427.718 147.965C429.077 149.325 431.281 149.325 432.641 147.965V147.965C433.173 147.433 433.519 146.742 433.625 145.996L434.142 142.376C434.415 140.469 435.066 138.636 436.057 136.984L441.37 128.129C443.336 124.851 446.322 122.308 449.871 120.889V120.889L454.688 118.825C456.574 118.016 458.349 116.969 459.969 115.71L461.608 114.435C462.169 113.998 462.772 113.618 463.409 113.3L465.488 112.26C467.669 111.169 470.268 111.331 472.298 112.684V112.684M472.298 112.684V114.325" stroke="#FBF7F3"/>
<path d="M300.542 247.792L296.887 246.151L275.856 236.708C274.448 236.076 272.982 235.581 271.479 235.23L257.329 231.929L247.783 228.747C246.491 228.316 245.239 227.777 244.039 227.134L230.526 219.895L216.857 213.06C215.037 212.15 213.109 211.476 211.119 211.052L190.877 206.745C189.235 206.396 187.561 206.22 185.882 206.22H164.887L150.665 207.861L137.537 210.049L127.691 211.69L114.853 212.974C112.495 213.209 110.112 212.98 107.842 212.299C103.055 210.863 99.0737 207.514 96.8387 203.044L95.7423 200.852C94.4431 198.253 92.679 195.914 90.5375 193.951L87.213 190.904L76.2058 183.247C75.1584 182.518 74.1707 181.707 73.2521 180.821L60.4529 168.479C59.6966 167.75 59.0054 166.956 58.3874 166.106C56.147 163.026 54.9402 159.314 54.9402 155.505V152.067C54.9402 149.675 53.7447 147.441 51.7543 146.114L42.9261 140.229C41.0982 139.01 39.4464 137.547 38.0167 135.879L36.7648 134.418C34.6809 131.987 33.1046 129.163 32.1287 126.114L31.167 123.108C29.9021 119.155 27.5514 115.638 24.3833 112.957C22.8814 111.686 21.5557 110.221 20.4412 108.6L18.4872 105.758C16.9101 103.464 15.7441 100.913 15.0414 98.2193L12.8215 89.7097L9.67832 82.0762C9.22178 80.9675 8.68279 79.8945 8.06588 78.8663L5.34078 74.3245C4.50317 72.9284 3.97651 71.3682 3.79673 69.7501L3.26113 64.9297C3.08779 63.3697 3.85776 61.8558 5.22059 61.077C6.22525 60.5029 7.43161 60.3999 8.51906 60.7953L10.2986 61.4424C11.8133 61.9932 12.8215 63.4327 12.8215 65.0444V68.2613C12.8215 69.9474 14.7006 70.9531 16.1035 70.0178L17.1024 73.2998L18.5543 78.0706C19.422 80.9214 21.5802 83.1979 24.3807 84.2163C25.4185 84.5937 26.5143 84.7867 27.6187 84.7867H33.7963C35.124 84.7867 36.4467 84.6239 37.7347 84.3019L39.9838 83.7396C42.8958 83.0116 45.9793 83.5193 48.5042 85.1424L49.4026 85.72C51.2003 86.8756 53.3768 87.2874 55.4724 86.8683C56.9146 86.5798 58.2533 85.9105 59.3494 84.9297L61.9118 82.6371C65.5182 79.4103 70.8713 79.091 74.8357 81.8661C77.4685 83.709 80.8043 84.234 83.8759 83.2889L84.1422 83.207C85.4486 82.805 86.6686 82.1629 87.7395 81.3135L96.0641 74.7113C99.832 71.7229 104.689 70.4689 109.432 71.2595C113.115 71.8733 116.493 73.6813 119.047 76.4049L120.379 77.8262C122.319 79.8957 123.855 82.3094 124.909 84.9432L126.263 88.3271C127.887 92.389 130.946 95.7133 134.859 97.6698C137.339 98.91 140.074 99.5556 142.847 99.5556H148.477L159.417 100.65C161.019 100.65 162.139 99.0655 161.606 97.5547L160.388 94.1025C159.789 92.4063 160.165 90.5186 161.369 89.1816L162.429 88.004C163.66 86.6354 165.348 85.7621 167.176 85.5469L169.074 85.3237C172.023 84.9768 174.999 85.6784 177.483 87.3055L189.501 95.1796L194.873 98.1641C197.823 99.8027 200.394 102.045 202.418 104.744L205.911 109.402L211.48 117.541C212.489 119.016 213.879 120.19 215.502 120.939L216.129 121.228C218.641 122.388 221.56 122.261 223.962 120.888L230.651 118.134C232.344 117.437 234.219 117.315 235.988 117.787C239.296 118.669 241.732 121.478 242.136 124.877L245.175 150.406C246.238 159.333 252.643 166.706 261.334 169.006L262.921 169.426C264.646 169.883 266.444 169.997 268.213 169.761C271.755 169.289 275.34 170.225 278.198 172.369L281.061 174.516C282.01 175.227 282.86 176.063 283.588 176.999L284.784 178.537C285.781 179.818 287.166 180.742 288.732 181.169C291.002 181.788 292.85 183.436 293.724 185.621L294.158 186.706C294.402 187.315 294.584 187.947 294.701 188.593L294.782 189.04C295.306 191.921 297.209 194.362 299.874 195.573C301.035 196.101 302.295 196.374 303.57 196.374H309.294H311.482L315.311 202.391L315.945 203.533C317.241 205.866 317.168 208.719 315.753 210.982C315.459 211.452 315.112 211.888 314.72 212.28L313.1 213.9C312.031 214.969 311.182 216.237 310.601 217.632L310.381 218.161C309.335 220.671 309.335 223.495 310.381 226.004C311.101 227.732 311.331 229.626 311.046 231.476L310.78 233.21C310.52 234.898 309.999 236.536 309.235 238.063L308.982 238.57C307.744 241.044 306.008 243.236 303.883 245.007L300.542 247.792Z" fill="#DDDDDD"/>
<path d="M296.887 246.151L300.542 247.792M300.542 247.792L275.856 236.708C274.448 236.076 272.982 235.581 271.479 235.23L257.329 231.929L247.783 228.747C246.491 228.316 245.239 227.777 244.039 227.134L230.526 219.895L216.857 213.06C215.037 212.15 213.109 211.476 211.119 211.052L190.877 206.745C189.235 206.396 187.561 206.22 185.882 206.22H164.887L150.665 207.861L137.537 210.049L127.691 211.69L114.853 212.974C112.495 213.209 110.112 212.98 107.842 212.299V212.299C103.055 210.863 99.0737 207.514 96.8387 203.044L95.7423 200.852C94.4431 198.253 92.679 195.914 90.5375 193.951L87.213 190.904L76.2058 183.247C75.1584 182.518 74.1707 181.707 73.2521 180.821L60.4529 168.479C59.6966 167.75 59.0054 166.956 58.3874 166.106V166.106C56.147 163.026 54.9402 159.314 54.9402 155.505V152.067V152.067C54.9402 149.675 53.7447 147.441 51.7543 146.114L42.9261 140.229C41.0982 139.01 39.4464 137.547 38.0167 135.879L36.7648 134.418C34.6809 131.987 33.1046 129.163 32.1287 126.114L31.167 123.108C29.9021 119.155 27.5514 115.638 24.3833 112.957V112.957C22.8814 111.686 21.5557 110.221 20.4412 108.6L18.4872 105.758C16.9101 103.464 15.7441 100.913 15.0414 98.2193L12.8215 89.7097L9.67832 82.0762C9.22178 80.9675 8.68279 79.8945 8.06588 78.8663L5.34078 74.3245C4.50317 72.9284 3.97651 71.3682 3.79673 69.7501L3.26113 64.9297C3.08779 63.3697 3.85776 61.8558 5.22059 61.077V61.077C6.22525 60.5029 7.43161 60.3999 8.51906 60.7953L10.2986 61.4424C11.8133 61.9932 12.8215 63.4327 12.8215 65.0444V68.2613C12.8215 69.9474 14.7006 70.9531 16.1035 70.0178V70.0178M300.542 247.792L303.883 245.007C306.008 243.236 307.744 241.044 308.982 238.57L309.235 238.063C309.999 236.536 310.52 234.898 310.78 233.21L311.046 231.476C311.331 229.626 311.101 227.732 310.381 226.004V226.004C309.335 223.495 309.335 220.671 310.381 218.161L310.601 217.632C311.182 216.237 312.031 214.969 313.1 213.9L314.72 212.28C315.112 211.888 315.459 211.452 315.753 210.982V210.982C317.168 208.719 317.241 205.866 315.945 203.533L315.311 202.391L311.482 196.374M16.1035 70.0178L17.1024 73.2998M16.1035 70.0178L18.5543 78.0706C19.422 80.9214 21.5802 83.1979 24.3807 84.2163V84.2163C25.4185 84.5937 26.5143 84.7867 27.6187 84.7867H33.7963C35.124 84.7867 36.4467 84.6239 37.7347 84.3019L39.9838 83.7396C42.8958 83.0116 45.9793 83.5193 48.5042 85.1424L49.4026 85.72C51.2003 86.8756 53.3768 87.2874 55.4724 86.8683V86.8683C56.9146 86.5798 58.2533 85.9105 59.3494 84.9297L61.9118 82.6371C65.5182 79.4103 70.8713 79.091 74.8357 81.8661V81.8661C77.4685 83.709 80.8043 84.234 83.8759 83.2889L84.1422 83.207C85.4486 82.805 86.6686 82.1629 87.7395 81.3135L96.0641 74.7113C99.832 71.7229 104.689 70.4689 109.432 71.2595V71.2595C113.115 71.8733 116.493 73.6813 119.047 76.4049L120.379 77.8262C122.319 79.8957 123.855 82.3094 124.909 84.9432L126.263 88.3271C127.887 92.3889 130.946 95.7133 134.859 97.6698V97.6698C137.339 98.91 140.074 99.5556 142.847 99.5556H148.477L159.417 100.65V100.65C161.019 100.65 162.139 99.0655 161.606 97.5547L160.388 94.1025C159.789 92.4063 160.165 90.5186 161.369 89.1816L162.429 88.004C163.66 86.6354 165.348 85.7621 167.176 85.5469L169.074 85.3237C172.023 84.9768 174.999 85.6784 177.483 87.3055L189.501 95.1796L194.873 98.1641C197.823 99.8027 200.394 102.045 202.418 104.744L205.911 109.402L211.48 117.541C212.489 119.016 213.879 120.19 215.502 120.939L216.129 121.228C218.641 122.388 221.56 122.261 223.962 120.888V120.888L230.651 118.134C232.344 117.437 234.219 117.315 235.988 117.787V117.787C239.296 118.669 241.732 121.478 242.136 124.877L245.175 150.406C246.238 159.333 252.643 166.706 261.334 169.006L262.921 169.426C264.646 169.883 266.444 169.997 268.213 169.761V169.761C271.755 169.289 275.34 170.225 278.198 172.369L281.061 174.516C282.01 175.227 282.86 176.063 283.588 176.999L284.784 178.537C285.781 179.818 287.166 180.742 288.732 181.169V181.169C291.002 181.788 292.85 183.436 293.724 185.621L294.158 186.706C294.402 187.315 294.584 187.947 294.701 188.593L294.782 189.04C295.306 191.921 297.209 194.362 299.874 195.573V195.573C301.035 196.101 302.295 196.374 303.57 196.374H311.482M311.482 196.374H309.294" stroke="#FBF7F3"/>
<path d="M477.221 412.438L474.76 416.54L472.298 420.643L470.355 423.558C469.482 424.867 469.016 426.406 469.016 427.979V428.791C469.016 430.884 470.037 432.844 471.751 434.044L472.692 434.703C473.817 435.49 474.486 436.776 474.486 438.148C474.486 439.811 475.465 441.317 476.984 441.992L479.409 443.07L485.522 446.635C485.821 446.81 486.143 446.945 486.477 447.036C489.147 447.764 491.723 445.605 491.473 442.849L490.53 432.481C490.424 431.314 491.135 430.227 492.247 429.856C493.792 429.341 495.413 430.402 495.561 432.024L495.819 434.865L496.192 438.038C496.665 442.056 498.146 445.89 500.498 449.183L502.383 451.822L502.889 452.496C504.534 454.689 504.534 457.706 502.889 459.899C502.553 460.347 502.158 460.746 501.715 461.087L498.411 463.629C496.333 465.228 494.53 467.157 493.075 469.339L490.849 472.678C489.431 474.804 487.672 476.682 485.643 478.234C481.6 481.325 476.652 483 471.562 483H423.667C421.824 483 419.997 482.669 418.272 482.022L416.089 481.203C413.559 480.255 411.523 478.305 410.459 475.822C409.429 473.419 409.392 470.697 410.363 468.27C411.479 465.481 413.805 463.353 416.682 462.489L420.181 461.44C422.092 460.867 423.89 459.969 425.498 458.788L438.487 449.237C440.592 447.688 442.937 446.494 445.427 445.702L452.614 443.415C453.334 443.186 454.085 443.07 454.841 443.07C458.064 443.07 460.911 440.967 461.859 437.886L462.103 437.095C462.335 436.342 462.452 435.558 462.452 434.77C462.452 432.099 461.103 429.609 458.866 428.15L458.239 427.741C453.72 424.794 452.656 418.629 455.926 414.337L456.533 413.54C457.889 411.76 458.623 409.585 458.623 407.348V402.919C458.623 399.112 457.692 395.363 455.911 391.999L454.63 389.578C454.011 388.41 453.49 387.193 453.072 385.939L452.842 385.248C450.932 379.519 446.932 374.719 441.64 371.809L438.931 370.319L421.232 359.592C420.998 359.45 420.78 359.285 420.581 359.099L415.705 354.527C414.546 353.441 415.426 351.504 417.007 351.662C417.389 351.7 417.774 351.605 418.094 351.391L419.648 350.355C420.46 349.813 421.148 349.105 421.666 348.277L422.229 347.376C423.142 345.914 424.364 344.671 425.809 343.732L429.768 341.158C432.88 339.135 436.551 338.146 440.259 338.331L442.749 338.456C444.541 338.546 446.321 338.112 447.871 337.208L448.928 336.591C450.889 335.447 452.163 333.413 452.337 331.15L452.356 330.906C452.513 328.862 451.686 326.865 450.13 325.531L449.727 325.185C449.106 324.653 448.641 323.961 448.382 323.185C447.941 321.863 448.136 320.411 448.909 319.252L451.226 315.776C451.78 314.945 452.236 314.053 452.587 313.118L455.341 305.774L456.982 300.304L466.281 279.518L469.016 273.501C471.086 268.327 470.687 262.476 467.922 257.638L465.782 252.929C465.387 252.06 465.101 251.146 464.93 250.208C464.393 247.254 465.024 244.208 466.689 241.711L467.375 240.681L469.89 237.808C470.744 236.831 471.887 236.153 473.153 235.872L473.276 235.845C475.071 235.446 476.949 235.915 478.345 237.112C479.386 238.004 480.08 239.234 480.305 240.587L480.331 240.743C480.445 241.426 480.445 242.124 480.331 242.807L480.059 244.44C479.632 247.002 478.49 249.362 477.21 251.622C476.756 252.423 476.488 253.076 476.674 253.262C477.073 253.661 477.805 256.512 478.207 258.256C478.28 258.572 478.389 258.879 478.534 259.169L478.876 259.853C479.507 261.115 480.931 261.77 482.3 261.428C483.522 261.122 484.424 260.09 484.563 258.838L485.973 246.151L488.244 229.348C488.552 227.069 488.531 224.758 488.181 222.485L488.014 221.4C487.748 219.673 487.295 217.979 486.661 216.351L485.752 214.012C484.47 210.715 484.195 207.112 484.962 203.658L485.148 202.821C485.689 200.387 485.597 197.855 484.88 195.467C484.516 194.254 483.996 193.093 483.332 192.014L480.788 187.88C480.236 186.983 479.803 186.017 479.5 185.008C478.732 182.447 478.831 179.704 479.783 177.205L481.967 171.471C482.448 170.211 482.753 168.89 482.875 167.547L483.071 165.394C483.18 164.189 483.609 163.036 484.312 162.052C485.374 160.564 485.794 158.711 485.476 156.91L484.755 152.82C484.474 151.233 483.966 149.694 483.245 148.253L481.597 144.957L479.411 139.856C478.691 138.175 477.583 136.688 476.178 135.518C475.418 134.884 474.742 134.156 474.167 133.351L473.09 131.843C472.568 131.112 472.207 130.279 472.031 129.399C471.847 128.478 471.869 127.527 472.097 126.615L472.676 124.3C473.15 122.405 473.293 120.442 473.099 118.498L472.845 115.966V113.231H475.307H475.782C477.104 113.231 478.424 113.34 479.727 113.557L481.236 113.809C483.291 114.151 485.383 114.225 487.457 114.027L495.819 113.231L496.321 113.042C498.779 112.121 501.517 112.324 503.812 113.599C504.677 114.08 505.456 114.7 506.118 115.436L507.661 117.15C509.221 118.884 510.307 120.991 510.813 123.268C511.027 124.231 511.135 125.216 511.135 126.203V127.369C511.135 129.236 510.834 131.091 510.244 132.862L509.302 135.686C509.069 136.387 508.675 137.024 508.153 137.546C507.26 138.438 506.759 139.649 506.759 140.911V141.675C506.759 142.039 506.789 142.402 506.849 142.761L507.306 145.504L507.853 149.88L508.4 153.709V156.17V157.725C508.4 158.306 508.169 158.862 507.759 159.272C506.905 160.127 506.905 161.512 507.759 162.367L508.095 162.702C508.297 162.904 508.465 163.137 508.591 163.394C509.168 164.57 510.041 166.445 510.041 166.836C510.041 167.092 509.42 168.229 508.722 169.421C507.804 170.989 506.658 172.408 505.373 173.692L503.812 175.253C503.589 175.476 503.348 175.681 503.091 175.864L500.889 177.437C500.151 177.964 499.844 178.91 500.13 179.77C500.173 179.899 500.204 180.032 500.22 180.167L500.525 182.605C500.669 183.757 500.659 184.923 500.495 186.072C500.296 187.461 499.875 188.809 499.247 190.065L497.46 193.639C496.74 195.44 496.431 197.379 496.556 199.314L497.401 212.417C497.44 213.024 497.4 213.633 497.28 214.23L496.796 216.651C496.536 217.952 497.086 219.281 498.19 220.017C499.101 220.624 499.648 221.647 499.648 222.741V224.102C499.648 224.578 499.59 225.051 499.474 225.513L499.101 227.006C498.738 228.459 498.554 229.951 498.554 231.449V233.446C498.554 235.337 498.894 237.212 499.558 238.982C499.981 240.111 500.533 241.188 501.202 242.191L503.477 245.604L503.893 246.269C505.408 248.694 506.212 251.496 506.212 254.356V258.732V261.776C506.212 265.149 505.264 268.453 503.477 271.313L503.276 271.715C501.61 275.048 500.742 278.722 500.742 282.448V288.817V293.003C500.742 294.583 500.915 296.159 501.258 297.701L501.418 298.424C501.696 299.672 502.125 300.882 502.697 302.026C503.215 303.062 503.847 304.038 504.581 304.935L508.4 309.603C510.444 311.647 511.302 314.593 510.675 317.415L510.588 317.807L510.182 319.838C509.729 322.102 508.775 324.236 507.39 326.083C506.608 327.126 505.697 328.065 504.679 328.88L504.571 328.966L503.477 329.841L502.949 328.786C502.267 327.421 500.872 326.559 499.347 326.559C498.151 326.559 497.018 327.09 496.252 328.009L495.919 328.409C495.148 329.334 494.076 329.959 492.89 330.175L488.708 330.935L482.146 331.707C480.476 331.904 479.07 333.048 478.538 334.644C478.39 335.086 478.173 335.501 477.893 335.874L476.272 338.036C475.492 339.076 474.268 339.687 472.969 339.687C470.759 339.687 468.941 341.428 468.845 343.636L467.992 363.251C467.946 364.305 467.679 365.337 467.207 366.28L466.423 367.847C465.663 369.368 465.806 371.185 466.794 372.568C467.515 373.578 467.797 374.837 467.575 376.058L467.162 378.33C466.946 379.516 466.321 380.588 465.396 381.359L464.753 381.895C463.988 382.532 463.546 383.475 463.546 384.47V386.182C463.546 387.088 464.281 387.823 465.187 387.823C466.094 387.823 466.828 388.558 466.828 389.464V395.707C466.828 396.977 467.261 398.209 468.054 399.201L468.277 399.48C468.761 400.085 469.399 400.547 470.124 400.819C472.028 401.533 473.171 403.485 472.861 405.495L472.394 408.533C472.331 408.945 472.34 409.365 472.422 409.774L472.527 410.301C472.953 412.429 475.338 413.514 477.221 412.438Z" fill="#DDDDDD"/>
<path d="M474.76 416.54L477.221 412.438M477.221 412.438L472.298 420.643L470.355 423.558C469.482 424.867 469.016 426.406 469.016 427.979V428.791C469.016 430.884 470.037 432.844 471.751 434.044L472.692 434.703C473.817 435.49 474.486 436.776 474.486 438.148V438.148C474.486 439.811 475.465 441.317 476.984 441.992L479.409 443.07L485.522 446.635C485.821 446.81 486.143 446.945 486.477 447.036V447.036C489.147 447.764 491.723 445.605 491.473 442.849L490.53 432.481C490.424 431.314 491.135 430.227 492.247 429.856V429.856C493.792 429.341 495.413 430.402 495.561 432.024L495.819 434.865L496.192 438.038C496.665 442.056 498.146 445.89 500.498 449.183L502.383 451.822L502.889 452.496C504.534 454.689 504.534 457.706 502.889 459.899V459.899C502.553 460.347 502.158 460.746 501.715 461.087L498.411 463.629C496.333 465.228 494.53 467.157 493.075 469.339L490.849 472.678C489.431 474.804 487.672 476.682 485.643 478.234V478.234C481.6 481.325 476.652 483 471.562 483H423.667C421.824 483 419.997 482.669 418.272 482.022L416.089 481.203C413.559 480.255 411.523 478.305 410.459 475.822V475.822C409.429 473.419 409.392 470.697 410.363 468.27V468.27C411.479 465.481 413.805 463.353 416.682 462.489L420.181 461.44C422.092 460.867 423.89 459.969 425.498 458.788L438.487 449.237C440.592 447.688 442.937 446.494 445.427 445.702L452.614 443.415C453.334 443.186 454.085 443.07 454.841 443.07V443.07C458.064 443.07 460.911 440.967 461.859 437.886L462.103 437.095C462.335 436.342 462.452 435.558 462.452 434.77V434.77C462.452 432.099 461.103 429.609 458.866 428.15L458.239 427.741C453.72 424.794 452.656 418.629 455.926 414.337L456.533 413.54C457.889 411.761 458.623 409.585 458.623 407.348V402.919C458.623 399.112 457.692 395.363 455.911 391.999L454.63 389.578C454.011 388.41 453.49 387.193 453.072 385.939L452.842 385.248C450.932 379.519 446.932 374.719 441.64 371.809L438.931 370.319L421.232 359.592C420.998 359.45 420.78 359.285 420.581 359.099L415.705 354.527C414.546 353.441 415.426 351.504 417.007 351.662V351.662C417.389 351.7 417.774 351.605 418.094 351.391L419.648 350.355C420.46 349.813 421.148 349.105 421.666 348.277L422.229 347.376C423.142 345.914 424.364 344.671 425.809 343.732L429.768 341.158C432.88 339.135 436.551 338.146 440.259 338.331L442.749 338.456C444.541 338.546 446.321 338.112 447.871 337.208L448.928 336.591C450.889 335.447 452.163 333.413 452.337 331.15L452.356 330.906C452.513 328.862 451.686 326.865 450.13 325.531L449.727 325.185C449.106 324.653 448.641 323.961 448.382 323.185V323.185C447.941 321.863 448.136 320.411 448.909 319.252L451.226 315.776C451.78 314.945 452.236 314.053 452.587 313.118L455.341 305.774L456.982 300.304L466.281 279.518L469.016 273.501V273.501C471.086 268.327 470.687 262.476 467.922 257.638V257.638L465.782 252.929C465.387 252.06 465.101 251.146 464.93 250.208V250.208C464.393 247.254 465.024 244.208 466.689 241.711L467.375 240.681L469.89 237.808C470.744 236.831 471.887 236.153 473.153 235.872L473.276 235.845C475.071 235.446 476.949 235.915 478.345 237.112V237.112C479.386 238.004 480.08 239.234 480.305 240.587L480.331 240.743C480.445 241.426 480.445 242.124 480.331 242.807L480.059 244.44C479.632 247.002 478.49 249.362 477.21 251.622C476.756 252.423 476.488 253.076 476.674 253.262C477.073 253.661 477.805 256.512 478.207 258.256C478.28 258.572 478.389 258.879 478.534 259.169L478.876 259.853C479.507 261.115 480.931 261.77 482.3 261.428V261.428C483.522 261.122 484.424 260.09 484.563 258.838L485.973 246.151L488.244 229.348C488.552 227.069 488.531 224.758 488.181 222.485L488.014 221.4C487.748 219.673 487.295 217.979 486.661 216.351L485.752 214.012C484.47 210.715 484.195 207.112 484.962 203.658L485.148 202.821C485.689 200.387 485.597 197.855 484.88 195.467V195.467C484.516 194.254 483.996 193.093 483.332 192.014L480.788 187.88C480.236 186.983 479.803 186.017 479.5 185.008V185.008C478.732 182.447 478.831 179.704 479.783 177.205L481.967 171.471C482.448 170.211 482.753 168.89 482.875 167.547L483.071 165.394C483.18 164.189 483.609 163.036 484.311 162.052V162.052C485.374 160.564 485.794 158.711 485.476 156.91L484.755 152.82C484.474 151.233 483.966 149.694 483.245 148.253L481.597 144.957L479.411 139.856C478.691 138.175 477.583 136.688 476.178 135.518V135.518C475.418 134.884 474.742 134.156 474.167 133.351L473.09 131.843C472.568 131.112 472.207 130.279 472.031 129.399V129.399C471.847 128.478 471.869 127.527 472.097 126.615L472.676 124.3C473.15 122.405 473.293 120.442 473.099 118.498L472.845 115.966V113.231M477.221 412.438V412.438C475.338 413.514 472.953 412.429 472.527 410.301L472.422 409.774C472.34 409.365 472.331 408.945 472.394 408.533L472.861 405.495C473.171 403.485 472.028 401.533 470.124 400.819V400.819C469.399 400.547 468.761 400.085 468.277 399.48L468.054 399.201C467.261 398.209 466.828 396.977 466.828 395.707V389.464C466.828 388.558 466.094 387.823 465.187 387.823V387.823C464.281 387.823 463.546 387.088 463.546 386.182V384.47C463.546 383.475 463.988 382.532 464.753 381.895L465.396 381.359C466.321 380.588 466.946 379.516 467.162 378.33L467.575 376.058C467.797 374.837 467.515 373.578 466.794 372.568V372.568C465.806 371.185 465.663 369.368 466.423 367.847L467.207 366.28C467.679 365.337 467.946 364.305 467.992 363.251L468.845 343.636C468.941 341.428 470.759 339.687 472.969 339.687V339.687C474.268 339.687 475.492 339.076 476.272 338.036L477.893 335.874C478.173 335.501 478.39 335.086 478.538 334.644V334.644C479.07 333.048 480.476 331.904 482.146 331.707L488.708 330.935L492.89 330.175C494.076 329.959 495.148 329.334 495.919 328.409L496.252 328.009C497.018 327.09 498.151 326.559 499.347 326.559V326.559C500.872 326.559 502.267 327.421 502.949 328.786L503.477 329.841M475.307 113.231H472.845M472.845 113.231H475.782C477.104 113.231 478.424 113.34 479.727 113.557L481.236 113.809C483.291 114.151 485.383 114.225 487.457 114.027L495.819 113.231M495.819 113.231H492.537M495.819 113.231L496.321 113.042C498.779 112.121 501.517 112.324 503.812 113.599V113.599C504.677 114.08 505.456 114.7 506.118 115.436L507.661 117.15C509.221 118.884 510.307 120.991 510.813 123.268V123.268C511.027 124.231 511.135 125.216 511.135 126.203V127.369C511.135 129.236 510.834 131.091 510.244 132.862L509.302 135.686C509.069 136.387 508.675 137.024 508.153 137.546V137.546C507.26 138.438 506.759 139.649 506.759 140.911V141.675C506.759 142.039 506.789 142.402 506.849 142.761L507.306 145.504L507.853 149.88L508.4 153.709M508.4 153.709V157.725C508.4 158.306 508.169 158.862 507.759 159.272V159.272C506.905 160.127 506.905 161.512 507.759 162.367L508.095 162.702C508.297 162.904 508.465 163.137 508.591 163.394C509.168 164.57 510.041 166.445 510.041 166.836C510.041 167.092 509.42 168.229 508.722 169.421C507.804 170.989 506.658 172.408 505.373 173.692L503.812 175.253C503.589 175.476 503.348 175.681 503.091 175.864L500.889 177.437C500.151 177.964 499.844 178.91 500.13 179.77V179.77C500.173 179.899 500.204 180.032 500.22 180.167L500.525 182.605C500.669 183.757 500.659 184.923 500.495 186.072V186.072C500.296 187.461 499.875 188.809 499.247 190.065L497.46 193.639V193.639C496.74 195.44 496.431 197.379 496.556 199.314L497.401 212.417C497.44 213.024 497.4 213.633 497.28 214.23L496.796 216.651C496.536 217.952 497.086 219.281 498.19 220.017V220.017C499.101 220.624 499.648 221.647 499.648 222.741V224.102C499.648 224.578 499.59 225.051 499.474 225.513L499.101 227.006C498.738 228.459 498.554 229.951 498.554 231.449V233.446C498.554 235.337 498.894 237.212 499.558 238.982V238.982C499.981 240.111 500.533 241.188 501.202 242.191L503.477 245.604L503.893 246.269C505.408 248.694 506.212 251.496 506.212 254.356V254.356V258.732V261.776C506.212 265.149 505.264 268.453 503.477 271.313V271.313L503.276 271.715C501.61 275.048 500.742 278.722 500.742 282.448V288.817V293.003C500.742 294.583 500.915 296.159 501.258 297.701L501.418 298.424C501.696 299.672 502.125 300.882 502.697 302.026V302.026C503.215 303.062 503.847 304.038 504.581 304.935L508.4 309.603V309.603C510.444 311.647 511.302 314.593 510.675 317.415L510.588 317.807L510.182 319.838C509.729 322.102 508.775 324.236 507.39 326.083V326.083C506.608 327.126 505.697 328.065 504.679 328.88L503.477 329.841M508.4 153.709V156.17M503.477 329.841L504.571 328.966" stroke="#FBF7F3"/>
<path d="M652.808 299.751L647.611 302.486L642.415 305.221L632.542 311.689C628.634 314.25 624.063 315.614 619.39 315.614H592.638H582.245L582.903 313.203C583.523 310.928 583.059 308.494 581.644 306.608C580.959 305.695 580.488 304.641 580.264 303.522L580.047 302.434C579.696 300.682 579.851 298.866 580.492 297.198C581.591 294.34 581.235 291.126 579.537 288.578L577.869 286.076L575.955 283.615L574.04 281.154L577.869 269.12L580.604 260.915L584.435 252.773C584.798 252.003 585.225 251.265 585.713 250.568L587.955 247.365C588.507 246.577 589.317 246.007 590.245 245.754L592.873 245.037C593.904 244.756 594.944 245.453 595.077 246.513C595.224 247.688 596.467 248.383 597.545 247.893L600.49 246.555C601.081 246.286 601.601 245.881 602.008 245.374L605.766 240.676L605.219 244.778L604.806 247.872C604.718 248.531 604.446 249.152 604.02 249.663L602.355 251.661C601.103 253.163 602.171 255.445 604.127 255.445C604.485 255.445 604.839 255.361 605.159 255.201L605.647 254.957C608.717 253.422 612.33 255.655 612.33 259.087V263.103L611.498 270.174C611.324 271.65 610.919 273.089 610.296 274.438L609.371 276.442C608.461 278.414 608.336 280.66 609.023 282.721L609.859 285.23C610.04 285.772 610.429 286.22 610.94 286.476C611.77 286.891 612.772 286.728 613.428 286.072L615.886 283.614C616.78 282.72 617.901 282.085 619.128 281.779L624.212 280.508C626.836 279.852 629.292 278.649 631.419 276.978L633.698 275.187C635.104 274.083 636.796 273.405 638.575 273.236L640.712 273.033C644.431 272.678 647.781 275.287 648.35 278.98C648.404 279.334 648.432 279.693 648.432 280.052V280.648C648.432 283.133 649.055 285.579 650.245 287.76L650.543 288.307C651.32 289.73 651.892 291.255 652.244 292.838L652.329 293.223C652.647 294.654 652.808 296.115 652.808 297.581V299.751Z" fill="#DDDDDD"/>
<path d="M647.611 302.486L652.808 299.751M652.808 299.751L642.415 305.221L632.542 311.689C628.634 314.25 624.063 315.614 619.39 315.614H582.245M652.808 299.751V297.581C652.808 296.115 652.647 294.654 652.329 293.223L652.244 292.838C651.892 291.255 651.32 289.73 650.543 288.307L650.245 287.76C649.055 285.579 648.432 283.133 648.432 280.648V280.052C648.432 279.693 648.404 279.334 648.35 278.98V278.98C647.781 275.287 644.431 272.678 640.712 273.033L638.575 273.236C636.796 273.405 635.104 274.083 633.698 275.187L631.419 276.978C629.292 278.649 626.836 279.852 624.212 280.508L619.128 281.779C617.901 282.085 616.78 282.72 615.886 283.614L613.428 286.072C612.772 286.728 611.77 286.891 610.94 286.476V286.476C610.429 286.22 610.04 285.772 609.859 285.23L609.023 282.721C608.336 280.66 608.461 278.414 609.371 276.442L610.296 274.438C610.919 273.089 611.324 271.65 611.498 270.174L612.33 263.103V259.087C612.33 255.655 608.717 253.422 605.647 254.957L605.159 255.201C604.839 255.361 604.485 255.445 604.127 255.445V255.445C602.171 255.445 601.103 253.163 602.355 251.661L604.02 249.663C604.446 249.152 604.718 248.531 604.806 247.872L605.766 240.676M582.245 315.614H592.638M582.245 315.614L582.903 313.203C583.523 310.928 583.059 308.494 581.644 306.608V306.608C580.959 305.695 580.488 304.641 580.264 303.522L580.047 302.434C579.696 300.682 579.851 298.866 580.492 297.198V297.198C581.591 294.34 581.235 291.126 579.537 288.578L577.869 286.076L574.04 281.154M574.04 281.154L577.869 269.12L580.604 260.915L584.435 252.773C584.798 252.003 585.225 251.265 585.713 250.568L587.955 247.365C588.507 246.577 589.317 246.007 590.245 245.754L592.873 245.037C593.904 244.756 594.944 245.453 595.077 246.513V246.513C595.224 247.688 596.467 248.383 597.545 247.893L600.49 246.555C601.081 246.286 601.601 245.881 602.008 245.374L605.766 240.676M574.04 281.154L575.955 283.615M605.766 240.676L605.219 244.778" stroke="#FBF7F3"/>
<path d="M695.957 456.501L691.281 454.864C688.735 453.973 686.706 452.012 685.728 449.498L685.547 449.033C684.277 445.766 681.131 443.614 677.626 443.614C676.766 443.614 675.911 443.484 675.091 443.227L669.422 441.456C668.194 441.072 666.999 440.59 665.848 440.014L663.403 438.792C661.095 437.638 658.997 436.112 657.139 434.323C655.296 432.549 653.367 430.766 652.808 430.486C652.175 430.17 649.788 427.737 647.757 425.587C646.434 424.187 644.601 423.375 642.675 423.375C639.607 423.375 636.911 421.342 636.068 418.392L635.304 415.717L632.602 409.411C632.232 408.548 632.232 407.571 632.602 406.707C633.225 405.253 634.761 404.413 636.321 404.673L636.806 404.754C638.776 405.082 640.692 403.929 641.324 402.034L641.868 400.401L645.697 391.649L648.367 386.309C649.497 384.049 650.984 381.987 652.77 380.2L656.105 376.866C656.812 376.158 657.691 375.648 658.656 375.385L660.276 374.943C661.977 374.479 663.768 375.28 664.557 376.857C665.08 377.904 666.069 378.641 667.222 378.845L673.31 379.919C674.227 380.081 675.156 380.162 676.087 380.162H684.004C687.943 380.162 691.822 379.193 695.298 377.339L696.994 376.435C697.801 376.004 698.657 375.674 699.545 375.452C702.848 374.627 706.348 375.35 709.053 377.419L710.948 378.867C713 380.437 714.646 382.477 715.746 384.815L718.448 390.555L722.981 400.529C723.604 401.9 724.355 403.208 725.223 404.438L730.482 411.888L747.21 433.322C747.713 433.965 747.985 434.759 747.985 435.575C747.985 437.598 746.346 439.238 744.323 439.238H742.755C741.88 439.238 741.019 439.458 740.251 439.877L739.614 440.224C737.019 441.639 735.405 444.359 735.405 447.314V451.999C735.405 452.967 735.249 453.928 734.943 454.846C734.188 457.111 732.564 458.983 730.429 460.05L727.2 461.665C723.126 464.381 717.928 464.767 713.498 462.682L713.025 462.46C711.904 461.932 710.855 461.263 709.903 460.47L708.052 458.928C705.97 457.193 703.235 456.451 700.562 456.897C699.018 457.154 697.434 457.018 695.957 456.501Z" fill="#DDDDDD"/>
<path d="M629.786 388.417L628.504 388.614C627.226 388.811 625.919 388.661 624.719 388.181L622.902 387.454C621.767 387 620.938 386.003 620.698 384.804C620.306 382.845 621.577 380.939 623.536 380.547L631.358 378.983C632.698 378.714 633.663 377.538 633.663 376.171C633.663 375.916 633.697 375.662 633.764 375.416L634.151 373.998C634.832 371.501 637.099 369.77 639.687 369.77C641.092 369.77 642.448 370.285 643.499 371.219L645.391 372.901C646.282 373.693 646.791 374.827 646.791 376.019C646.791 377.559 645.942 378.974 644.583 379.699L640.217 382.028C639.136 382.604 638.146 383.338 637.279 384.204L636.437 385.047C634.635 386.849 632.305 388.029 629.786 388.417Z" fill="#DDDDDD"/>
<path d="M695.957 456.501L691.281 454.864C688.735 453.973 686.706 452.012 685.728 449.498L685.547 449.033C684.277 445.766 681.131 443.614 677.626 443.614C676.766 443.614 675.911 443.484 675.091 443.227L669.422 441.456C668.194 441.072 666.999 440.59 665.848 440.014L663.403 438.792C661.095 437.638 658.997 436.112 657.139 434.323C655.296 432.549 653.367 430.766 652.808 430.486C652.175 430.17 649.788 427.737 647.757 425.587C646.434 424.187 644.601 423.375 642.675 423.375C639.607 423.375 636.911 421.342 636.068 418.392L635.304 415.717L632.602 409.411C632.232 408.548 632.232 407.571 632.602 406.707C633.225 405.253 634.761 404.413 636.321 404.673L636.806 404.754C638.776 405.082 640.692 403.929 641.324 402.034L641.868 400.401L645.697 391.649L648.367 386.309C649.497 384.049 650.984 381.987 652.77 380.2L656.105 376.866C656.812 376.158 657.691 375.648 658.656 375.385L660.276 374.943C661.977 374.479 663.768 375.28 664.557 376.857C665.08 377.904 666.069 378.641 667.222 378.845L673.31 379.919C674.227 380.081 675.156 380.162 676.087 380.162H684.004C687.943 380.162 691.822 379.193 695.298 377.339L696.994 376.435C697.801 376.004 698.657 375.674 699.545 375.452C702.848 374.627 706.348 375.35 709.053 377.419L710.948 378.867C713 380.437 714.646 382.477 715.746 384.815L718.448 390.555L722.981 400.529C723.604 401.9 724.355 403.208 725.223 404.438L730.482 411.888L747.21 433.322C747.713 433.965 747.985 434.759 747.985 435.575C747.985 437.598 746.346 439.238 744.323 439.238H742.755C741.88 439.238 741.019 439.458 740.251 439.877L739.614 440.224C737.019 441.639 735.405 444.359 735.405 447.314V451.999C735.405 452.967 735.249 453.928 734.943 454.846C734.188 457.111 732.564 458.983 730.429 460.05L727.2 461.665C723.126 464.381 717.928 464.767 713.498 462.682L713.025 462.46C711.904 461.932 710.855 461.263 709.903 460.47L708.052 458.928C705.97 457.193 703.235 456.451 700.562 456.897C699.018 457.154 697.434 457.018 695.957 456.501Z" stroke="#FBF7F3"/>
<path d="M629.786 388.417L628.504 388.614C627.226 388.811 625.919 388.661 624.719 388.181L622.902 387.454C621.767 387 620.938 386.003 620.698 384.804C620.306 382.845 621.577 380.939 623.536 380.547L631.358 378.983C632.698 378.714 633.663 377.538 633.663 376.171C633.663 375.916 633.697 375.662 633.764 375.416L634.151 373.998C634.832 371.501 637.099 369.77 639.687 369.77C641.092 369.77 642.448 370.285 643.499 371.219L645.391 372.901C646.282 373.693 646.791 374.827 646.791 376.019C646.791 377.559 645.942 378.974 644.583 379.699L640.217 382.028C639.136 382.604 638.146 383.338 637.279 384.204L636.437 385.047C634.635 386.849 632.305 388.029 629.786 388.417Z" stroke="#FBF7F3"/>
</svg>
